<svg xmlns="http://www.w3.org/2000/svg" viewBox="0 0 114.9 193.73"><title>Voiture-PlanImpact-Vertical</title><g id="Calque_2" data-name="Calque 2"><g id="Calque_1-2" data-name="Calque 1"><path d="M82,91.94a1.62,1.62,0,0,0,.88,0A3.16,3.16,0,0,0,84,91.36a13.1,13.1,0,0,0,3.06-4.24l.27-.55h0a110.62,110.62,0,0,0,4.94-13L93,71.61c.09-.27.18-.53.28-.8.9-2.59,2.23-6.41.3-8.09C85.15,55.43,71,51.79,56.8,51.79S28.44,55.43,20.06,62.72c-1.93,1.68-.6,5.5.31,8.09l.27.8.65,1.93a110.78,110.78,0,0,0,4.95,13h0c.16.31.31.64.46,1a12.33,12.33,0,0,0,2.84,3.82,3.16,3.16,0,0,0,1.19.59,1.62,1.62,0,0,0,.88,0A75.65,75.65,0,0,1,56.8,87.83,75.64,75.64,0,0,1,82,91.94ZM66.53,154.65a.93.93,0,0,1,1,.82,1,1,0,0,1-.83,1.05,77.62,77.62,0,0,1-9.92.55,79.27,79.27,0,0,1-9.9-.7.94.94,0,1,1,.25-1.87,76.4,76.4,0,0,0,19.35.15ZM29.12,94.58c2,7.89,2.61,17.64,2.05,27.38A115.15,115.15,0,0,1,27.59,145a7.44,7.44,0,0,1,4.72-2.1,4.93,4.93,0,0,1,1.65.28,59.85,59.85,0,0,0,6.43,1.91,68.9,68.9,0,0,0,6.87,1.29,75.91,75.91,0,0,0,19.21.14,69.92,69.92,0,0,0,7.48-1.3,62.81,62.81,0,0,0,7-2,4.92,4.92,0,0,1,1.64-.28,7.32,7.32,0,0,1,4.5,1.9A118.92,118.92,0,0,1,83,121.28c-.7-9.52-.28-19,1.59-26.74a6,6,0,0,1-1.06.35,4.5,4.5,0,0,1-2.57-.12,72.66,72.66,0,0,0-24.14-3.92,72.64,72.64,0,0,0-24.13,3.92,4.53,4.53,0,0,1-2.58.12A7.14,7.14,0,0,1,29.12,94.58Zm-4.53,59.31a40.67,40.67,0,0,1-2.36,4.81c-.51,1.18-1,2.38-1.42,3.58a40.12,40.12,0,0,0-2.36,9.87v.51h0c.07,7.2,2.49,11.48,5.84,14.05s7.79,3.55,11.72,4H78.94c3.92-.44,8.33-1.4,11.72-4s5.63-6.62,5.82-13.47a35.81,35.81,0,0,0-2.41-11c-.44-1.24-.94-2.48-1.47-3.7a47.61,47.61,0,0,1-2.43-4.9c-.59-1-1.2-2-1.83-2.92-2-2.88-4.06-4.83-5.77-4.83A1.88,1.88,0,0,0,82,146a64.33,64.33,0,0,1-7.33,2.14,71.81,71.81,0,0,1-7.8,1.37,79.36,79.36,0,0,1-20-.16A71.36,71.36,0,0,1,39.69,148a64.22,64.22,0,0,1-6.75-2,1.67,1.67,0,0,0-.63-.11c-1.7,0-3.76,1.95-5.77,4.83-.67,1-1.32,2-1.95,3.13Zm-2.72-1.3a82.86,82.86,0,0,0,4.95-18.43,33.31,33.31,0,0,0-5.3,6.23,17.4,17.4,0,0,0-3.07,7.78V160A60.38,60.38,0,0,1,21.87,152.59Zm5.58-22.87c.32-2.61.56-5.27.71-7.92.72-12.64-.54-25.21-4.32-33.32a104,104,0,0,1-5.39-13.92v65.06c.17-.29.36-.58.55-.87A36.36,36.36,0,0,1,27.45,129.72ZM15.39,48.33a1.53,1.53,0,0,1,0-.3V23.66c0-8.32,1.66-14,5.48-17.82S30.53.35,38.88,0H76.06c8.35.34,14.16,2.05,18,5.83s5.48,9.5,5.48,17.82V48.33a17.26,17.26,0,0,0,.79,6,11.61,11.61,0,0,0,2.56,4h0l9.33,10.14.5.53c1.84,1.92,3.26,3.4,1.18,6.75a5.62,5.62,0,0,1-.32.47,4.33,4.33,0,0,1-3.39,1.91,5.77,5.77,0,0,1-3.24-1c-.22-.14-.45-.3-.68-.48l-6.73-5V172.66h0c-.07,8.31-3,13.34-7,16.44s-8.95,4.12-13.33,4.61H35.77c-4.38-.49-9.36-1.56-13.32-4.61s-6.8-7.88-7-15.84h0q0-.48,0-1V148.68h0V71.57l-6.76,5c-.23.17-.46.33-.68.47a5.77,5.77,0,0,1-3.24,1,4.3,4.3,0,0,1-3.39-1.91c-.12-.16-.22-.32-.32-.47C-1,72.32.37,70.85,2.21,68.92l.5-.53L12,58.25h0a11.61,11.61,0,0,0,2.56-4,17.26,17.26,0,0,0,.79-6Zm0,10.58c-.35.46-.74.91-1.16,1.38h0L4.93,70.43,4.39,71c-.93,1-1.64,1.72-.8,3.07a3.12,3.12,0,0,0,.18.27,1.43,1.43,0,0,0,1.08.7,2.84,2.84,0,0,0,1.53-.54c.18-.11.34-.22.49-.33l8.55-6.36v-8.9Zm84.09,8.92L108,74.17c.15.11.31.22.49.33a2.84,2.84,0,0,0,1.53.54,1.43,1.43,0,0,0,1.08-.7,3.12,3.12,0,0,0,.18-.27c.84-1.35.13-2.1-.8-3.07l-.54-.57-9.33-10.14h0c-.41-.45-.79-.9-1.13-1.34v8.88Zm-3,80.56c-.09-2.35-1.34-5.29-3.27-8.2a35.78,35.78,0,0,0-5.63-6.53,88.68,88.68,0,0,0,5.3,18.7,59.14,59.14,0,0,1,3.6,7.76V148.39Zm-9.62-19.21a38,38,0,0,1,8.86,9.34c.27.4.52.81.76,1.21V70.6l-.41,1.21c-.1.27-.19.53-.26.76l-.65,1.93A112.1,112.1,0,0,1,90,87.9h0c-3.93,7.93-5,20.48-4.07,33.17.21,2.72.5,5.43.88,8.11Zm9.62-67.66V23.66c0-7.48-1.38-12.51-4.58-15.68a12.19,12.19,0,0,0-2.39-1.85V56.26a36.13,36.13,0,0,1,6,4.18,5.71,5.71,0,0,1,1,1.08Zm-10-6.81V22.4L76.31,15.12a6.37,6.37,0,0,1-1.87-2.38,7.47,7.47,0,0,1-.76-3V3H41.25V9.74a7.31,7.31,0,0,1-.76,3,6.27,6.27,0,0,1-1.87,2.38L28.45,22.4V54.1c8.23-3.56,18.3-5.34,28.34-5.34,10.6,0,21.23,2,29.69,6Zm-61.06.82V6.13A12.19,12.19,0,0,0,23,8c-3.2,3.17-4.58,8.2-4.58,15.68V60.12A38.05,38.05,0,0,1,25.42,55.53ZM38.22,3.05a35.51,35.51,0,0,0-9.77,1.67v14l8.42-6a3.35,3.35,0,0,0,.9-1.23,4.19,4.19,0,0,0,.45-1.71ZM86.48,18.69v-14a35.51,35.51,0,0,0-9.77-1.67V9.74a4.19,4.19,0,0,0,.45,1.7,3.35,3.35,0,0,0,.9,1.23Z"/></g></g></svg>