<?xml version="1.0" encoding="utf-8"?>
<!-- Generator: Adobe Illustrator 17.0.0, SVG Export Plug-In . SVG Version: 6.00 Build 0)  -->
<!DOCTYPE svg PUBLIC "-//W3C//DTD SVG 1.1//EN" "http://www.w3.org/Graphics/SVG/1.1/DTD/svg11.dtd">
<svg version="1.1" id="Calque_1" xmlns="http://www.w3.org/2000/svg" xmlns:xlink="http://www.w3.org/1999/xlink" x="0px" y="0px"
	 width="283.46px" height="283.46px" viewBox="0 0 283.46 283.46" enable-background="new 0 0 283.46 283.46" xml:space="preserve">
<g color="white">
	<path d="M146.658,172.879c-0.089,0.249-0.086,0.558-0.011,0.886c0.094,0.409,0.299,0.822,0.585,1.185
		c0.84,1.066,2.346,2.089,4.243,3.068c0.186,0.087,0.371,0.176,0.553,0.266l-0.005,0.011c3.664,1.806,8.596,3.457,13.029,4.942
		c0.657,0.22,1.304,0.436,1.934,0.65c0.269,0.091,0.526,0.181,0.795,0.274c2.597,0.905,6.413,2.235,8.093,0.304
		c7.289-8.381,10.934-22.536,10.934-36.735s-3.645-28.354-10.934-36.735c-1.68-1.931-5.496-0.601-8.093,0.304
		c-0.269,0.094-0.526,0.183-0.795,0.274c-0.63,0.213-1.277,0.43-1.934,0.649c-4.438,1.486-9.374,3.139-13.04,4.947l0.016,0.032
		c-0.319,0.158-0.646,0.312-0.979,0.462c-1.697,0.911-3.041,1.859-3.817,2.844c-0.286,0.363-0.491,0.776-0.585,1.185
		c-0.075,0.327-0.078,0.637,0.011,0.886c2.737,7.634,4.106,16.402,4.106,25.151C150.764,156.476,149.395,165.245,146.658,172.879
		L146.658,172.879z M83.949,157.467c0.061,0.518-0.309,0.987-0.827,1.048c-0.518,0.061-0.987-0.309-1.048-0.827
		c-0.392-3.259-0.575-6.585-0.549-9.922c0.026-3.33,0.261-6.649,0.704-9.901c0.069-0.516,0.544-0.878,1.059-0.808
		c0.516,0.069,0.878,0.544,0.808,1.059c-0.435,3.185-0.665,6.423-0.69,9.658C83.383,151.006,83.563,154.256,83.949,157.467z
		 M144.018,120.058c-7.891,2-17.644,2.603-27.384,2.049c-8.019-0.456-16.056-1.697-23.059-3.586c1.325,1.548,2.1,3.145,2.102,4.724
		c0.001,0.556-0.092,1.105-0.285,1.644c-0.745,2.078-1.382,4.229-1.912,6.432c-0.537,2.231-0.965,4.529-1.284,6.871
		c-0.432,3.165-0.66,6.378-0.685,9.585c-0.025,3.201,0.155,6.428,0.539,9.624c0.306,2.546,0.741,5.049,1.303,7.48
		c0.559,2.412,1.238,4.749,2.039,6.982c0.193,0.539,0.286,1.088,0.285,1.644c-0.002,1.5-0.701,3.017-1.907,4.492
		c7.15-2.051,15.37-3.485,23.543-4.091c9.523-0.706,19.023-0.289,26.745,1.581c-0.152-0.342-0.27-0.695-0.352-1.051
		c-0.197-0.862-0.177-1.753,0.118-2.575c2.611-7.282,3.917-15.699,3.917-24.135c0-8.437-1.306-16.853-3.917-24.135
		c-0.295-0.822-0.315-1.713-0.118-2.575C143.78,120.693,143.885,120.371,144.018,120.058z M84.7,115.527
		c-1.75-0.737-3.362-1.527-4.81-2.366c-1.179-0.511-2.38-0.985-3.577-1.414c-3.613-1.295-7.149-2.168-9.869-2.365h-0.508v-0.006
		c-7.201,0.064-11.484,2.485-14.056,5.834c-2.599,3.385-3.55,7.793-3.992,11.72v21.47v21.47c0.441,3.926,1.392,8.335,3.992,11.72
		c2.502,3.257,6.621,5.636,13.47,5.823c2.824-0.003,6.844-0.931,10.963-2.408c1.239-0.444,2.482-0.937,3.702-1.468
		c1.473-0.854,3.117-1.667,4.901-2.433c1.04-0.589,2.02-1.201,2.916-1.826c2.886-2.013,4.83-4.068,4.832-5.771
		c0-0.215-0.035-0.425-0.108-0.628c-0.852-2.376-1.567-4.827-2.145-7.325c-0.592-2.555-1.046-5.165-1.362-7.799
		c-0.394-3.273-0.577-6.623-0.551-9.991c0.026-3.358,0.262-6.702,0.709-9.974c0.33-2.418,0.778-4.814,1.343-7.166
		c0.557-2.314,1.226-4.572,2.007-6.751c0.073-0.204,0.108-0.414,0.108-0.628c-0.002-1.702-1.947-3.757-4.832-5.771
		C86.875,116.806,85.82,116.153,84.7,115.527L84.7,115.527z M86.003,112.807c5.143,2.155,11.55,3.839,18.427,4.949
		c-1.876-2.04-4.03-3.868-6.226-5.298c-2.727-1.776-5.479-2.925-7.777-3.076H78.595C81.152,110.361,83.698,111.529,86.003,112.807z
		 M108.872,118.386c2.614,0.32,5.27,0.559,7.927,0.71c12.635,0.718,25.21-0.538,33.318-4.325c3.971-2.055,9.207-3.812,13.919-5.389
		H98.972c0.292,0.176,0.583,0.359,0.874,0.548C103.175,112.099,106.41,115.095,108.872,118.386z M190.26,106.326
		c0.106,0,0.209,0.011,0.309,0.032h24.365c8.316,0,14.03,1.655,17.822,5.478c3.774,3.805,5.491,9.625,5.832,17.974l0.006,0.059v0.8
		v35.461v0.8l-0.006,0.059c-0.341,8.35-2.058,14.169-5.832,17.974c-3.792,3.823-9.506,5.478-17.822,5.478H190.26
		c-2.598,0-4.448,0.247-5.947,0.79c-1.468,0.532-2.667,1.372-3.969,2.564l0.003,0.003l-10.138,9.326
		c-0.213,0.196-0.376,0.352-0.535,0.504c-1.924,1.839-3.403,3.253-6.748,1.176c-0.153-0.095-0.309-0.202-0.469-0.321
		c-1.315-0.978-1.866-2.151-1.915-3.389c-0.044-1.129,0.363-2.232,0.987-3.238c0.137-0.22,0.295-0.45,0.471-0.686l5.007-6.728
		H65.937l-0.012-0.006c-8.311-0.071-13.345-2.983-16.442-7.015c-3.047-3.968-4.122-8.944-4.606-13.325l-0.012-0.107v-0.059v-43.119
		l0.012-0.107c0.484-4.38,1.559-9.357,4.606-13.325c3.02-3.933,7.885-6.8,15.837-7.005v-0.047c0.328,0,0.669,0.01,1.022,0.031
		h23.571v-0.005c0.109,0,0.219,0.002,0.33,0.005h76.786l-5.03-6.76c-0.175-0.236-0.334-0.466-0.471-0.686
		c-0.624-1.006-1.031-2.108-0.987-3.238c0.048-1.239,0.6-2.411,1.915-3.389c0.16-0.119,0.316-0.226,0.469-0.321
		c3.346-2.078,4.824-0.664,6.748,1.176c0.159,0.152,0.322,0.308,0.535,0.504l10.138,9.326l-0.003,0.003
		c1.302,1.192,2.5,2.032,3.969,2.564C185.812,106.08,187.662,106.326,190.26,106.326L190.26,106.326z M179.686,106.358
		c-0.459-0.355-0.913-0.743-1.377-1.168h-0.006l-10.138-9.326c-0.17-0.156-0.373-0.351-0.571-0.539
		c-0.971-0.928-1.717-1.641-3.075-0.798c-0.111,0.069-0.2,0.128-0.268,0.179c-0.484,0.36-0.684,0.725-0.698,1.074
		c-0.018,0.459,0.203,0.996,0.539,1.537c0.11,0.177,0.22,0.338,0.329,0.485l6.366,8.555H179.686z M170.764,190.442l-6.343,8.523
		c-0.109,0.146-0.219,0.308-0.329,0.485c-0.336,0.54-0.556,1.078-0.539,1.537c0.014,0.35,0.214,0.714,0.698,1.074
		c0.068,0.051,0.158,0.111,0.268,0.179c1.358,0.844,2.104,0.13,3.075-0.798c0.197-0.189,0.401-0.383,0.571-0.539l10.138-9.326h0.006
		c0.449-0.412,0.891-0.79,1.336-1.136H170.764z M90.203,187.418c2.354-0.094,5.29-1.348,8.202-3.279
		c2.321-1.539,4.594-3.492,6.531-5.628c-6.971,1.254-13.48,3.073-18.705,5.307c-2.402,1.348-5.078,2.578-7.761,3.6H90.203
		L90.203,187.418z M109.412,177.793c-2.479,3.383-5.864,6.556-9.341,8.861c-0.401,0.266-0.805,0.521-1.209,0.763h69.13
		c-0.418-0.139-0.821-0.28-1.204-0.413c-0.274-0.096-0.536-0.187-0.759-0.262c-0.63-0.213-1.277-0.43-1.934-0.65
		c-4.501-1.507-9.488-3.177-13.398-5.115l-0.004,0.009c-7.931-3.929-20.481-5.009-33.168-4.068
		C114.809,177.121,112.09,177.415,109.412,177.793L109.412,177.793z M177.079,187.418h13.181h24.674
		c7.479,0,12.514-1.384,15.685-4.58c0.697-0.703,1.312-1.5,1.85-2.396h-50.131c-1.241,2.206-2.636,4.224-4.185,6.005
		C177.817,186.832,177.458,187.153,177.079,187.418L177.079,187.418z M183.889,177.418h32.304l7.277-10.17
		c0.537-0.751,1.423-1.409,2.386-1.87c0.978-0.468,2.079-0.76,3.003-0.76h6.712v-32.437h-6.712c-0.924,0-2.025-0.292-3.003-0.76
		c-0.964-0.461-1.849-1.119-2.386-1.87l-7.277-10.17h-31.7c3.557,8.234,5.337,18.3,5.337,28.346
		C189.83,158.328,187.85,168.95,183.889,177.418L183.889,177.418z M183.063,116.358h49.406c-0.538-0.896-1.153-1.693-1.85-2.396
		c-3.171-3.196-8.205-4.58-15.685-4.58h-36.463C180.199,111.432,181.73,113.781,183.063,116.358z M235.541,129.158
		c-0.205-3.895-0.733-7.133-1.669-9.776h-13.971l6.026,8.422c0.231,0.323,0.692,0.644,1.229,0.901
		c0.583,0.279,1.209,0.453,1.704,0.453L235.541,129.158z M219.901,177.418h13.971c0.936-2.643,1.464-5.881,1.669-9.776h-6.682
		c-0.494,0-1.121,0.174-1.704,0.453c-0.537,0.257-0.998,0.578-1.229,0.901L219.901,177.418z" fill="currentColor" />
</g>
</svg>
