<?xml version="1.0" encoding="utf-8"?>
<!-- Generator: Adobe Illustrator 23.0.1, SVG Export Plug-In . SVG Version: 6.00 Build 0)  -->
<svg version="1.1" id="Calque_1" xmlns="http://www.w3.org/2000/svg" xmlns:xlink="http://www.w3.org/1999/xlink" x="0px" y="0px"
	 viewBox="0 0 33.9 32.4" style="enable-background:new 0 0 33.9 32.4;" xml:space="preserve">
<style type="text/css">
	.st0{fill:#81D742;}
</style>
<g id="Groupe_6471" transform="translate(0 50.763)">
	<g id="Groupe_6388" transform="translate(0 -50.763)">
		<path id="Tracé_4466" class="st0" d="M19.6,1.2c-1.9-1.4-4.6-0.6-4.7-0.6c-0.3,0.1-0.4,0.3-0.4,0.6v5.9c0,2-1.1,3.9-2.8,5
			c-0.9,0.6-1.9,1.1-2.9,1.5c0,0,0,0,0,0l-0.3,0.1c-0.2-0.3-0.6-0.6-1-0.6H1.2c-0.6,0-1.2,0.5-1.2,1.2v16.5c0,0.6,0.5,1.2,1.2,1.2
			h6.1c0.5,0,1-0.4,1.1-0.9c0.8,0.9,2,1.4,3.3,1.4H26c3.1,0,5-1.6,5.4-4.4l1.8-11.7c0.3-1.7-0.4-3.4-1.8-4.4
			c-0.8-0.5-1.7-0.8-2.6-0.8h-7.5V5.8C21.4,3.6,20.8,2.1,19.6,1.2z M7.2,30.7H1.3V14.4h5.9L7.2,30.7z M28.9,12.5
			c0.7,0,1.3,0.2,1.9,0.6c1,0.7,1.5,2,1.3,3.2l-1.8,11.7v0c-0.3,2.7-2.4,3.3-4.1,3.3H11.7c-1.8,0-3.2-1.4-3.2-3.2V15L9,14.8
			c1.2-0.4,2.3-0.9,3.3-1.6c2.1-1.3,3.3-3.6,3.4-6V1.7c1.1-0.3,2.2-0.1,3.2,0.5c0.9,0.6,1.3,1.8,1.3,3.6v6.1c0,0.3,0.3,0.6,0.6,0.6
			L28.9,12.5L28.9,12.5z"/>
	</g>
</g>
</svg>
