<?xml version="1.0" encoding="utf-8"?>
<!-- Generator: Adobe Illustrator 23.0.1, SVG Export Plug-In . SVG Version: 6.00 Build 0)  -->
<svg version="1.1" id="Calque_1" xmlns="http://www.w3.org/2000/svg" xmlns:xlink="http://www.w3.org/1999/xlink" x="0px" y="0px"
	 viewBox="0 0 42.9 36.4" style="enable-background:new 0 0 42.9 36.4;" xml:space="preserve">
<style type="text/css">
	.st0{fill:#E0E3E8;}
</style>
<g id="Groupe_5100" transform="translate(-720.588 -498.308)">
	<g id="Groupe_5097">
		<g id="Tracé_4020">
			<path class="st0" d="M753.6,520.9L753.6,520.9c0-5-4-9-9-9c-5,0-9,4-9,9c0,5,4,9,9,9C749.6,529.8,753.6,525.8,753.6,520.9
				C753.6,520.9,753.6,520.8,753.6,520.9L753.6,520.9z M737.1,520.9c0-4.2,3.4-7.6,7.6-7.6c4.2,0,7.6,3.4,7.6,7.6v0
				c0,4.2-3.4,7.6-7.6,7.6C740.5,528.4,737.1,525,737.1,520.9L737.1,520.9z"/>
		</g>
		<g id="Tracé_4021">
			<path class="st0" d="M758.8,508.4H753l-0.5-1.6l0-0.1c-0.2-1-1.1-1.6-2.1-1.6h-12c-0.3,0.1-0.4,0.4-0.4,0.7v0.1v0
				c0,0.3,0.1,0.5,0.4,0.7h12c0.3,0,0.6,0.2,0.7,0.6l0.8,2.8h6.9c1.6,0,2.8,1.3,2.8,2.8v17.2c0,1.6-1.3,2.8-2.8,2.8h-28.3
				c-1.6,0-2.8-1.3-2.8-2.8v-12.2l0,0v-0.5c-0.1-0.3-0.3-0.4-0.6-0.4H727h-0.1c-0.3,0-0.5,0.2-0.6,0.4v12.8c0,2.3,1.9,4.2,4.3,4.3
				h28.3c2.3,0,4.3-1.9,4.3-4.3v-17.2C763,510.3,761.1,508.4,758.8,508.4z"/>
		</g>
	</g>
	<g id="Ellipse_107">
		<path class="st0" d="M728.8,515c-4.5,0-8.2-3.7-8.2-8.2s3.7-8.2,8.2-8.2s8.2,3.7,8.2,8.2S733.3,515,728.8,515z M728.8,499.7
			c-4,0-7.2,3.2-7.2,7.2s3.2,7.2,7.2,7.2s7.2-3.2,7.2-7.2S732.8,499.7,728.8,499.7z"/>
	</g>
	<g id="Tracé_4022">
		<path class="st0" d="M733.7,506.4h-4.4V502c-0.1-0.2-0.2-0.3-0.4-0.3h-0.1c-0.2,0-0.3,0.1-0.4,0.3v4.4H724
			c-0.2,0.1-0.3,0.2-0.3,0.4v0v0c0,0.2,0.1,0.3,0.3,0.4h4.4v4.4c0.1,0.2,0.2,0.3,0.4,0.3h0h0.1c0.2,0,0.3-0.1,0.4-0.3v-4.4h4.4
			c0.2-0.1,0.3-0.2,0.3-0.4v-0.1C733.9,506.6,733.8,506.5,733.7,506.4z"/>
	</g>
</g>
</svg>
