<?xml version="1.0" encoding="utf-8"?>
<!-- Generator: Adobe Illustrator 23.0.1, SVG Export Plug-In . SVG Version: 6.00 Build 0)  -->
<svg version="1.1" id="Calque_1" xmlns="http://www.w3.org/2000/svg" xmlns:xlink="http://www.w3.org/1999/xlink" x="0px" y="0px"
	 viewBox="0 0 21.9 27.4" style="enable-background:new 0 0 21.9 27.4;" xml:space="preserve">
<style type="text/css">
	.st0{fill:#FFFFFF;}
</style>
<g id="Groupe_5871" transform="translate(-9)">
	<g id="Groupe_5087">
		<g id="Groupe_5084" transform="translate(9)">
			<g id="Groupe_5081">
				<g id="Tracé_4016">
					<path class="st0" d="M18.2,14.1c-1.1-1.1-2.5-2-4-2.5C17,9.6,17.7,5.8,15.7,3S10-0.5,7.2,1.4S3.7,7.2,5.6,10
						c0.4,0.6,1,1.2,1.6,1.6C2.9,13,0.1,17.1,0.1,21.6h1.7c0-5,4-9,9-9c4.9,0,9,4,9,9h1.7C21.3,18.8,20.2,16.1,18.2,14.1z M10.7,11
						c-2.5,0-4.5-2-4.5-4.5C6.2,4,8.2,2,10.7,2c2.5,0,4.5,2,4.5,4.5C15.2,9,13.2,11,10.7,11z"/>
				</g>
			</g>
		</g>
	</g>
	<g id="Groupe_5107" transform="translate(14.019 15.19)">
		<g id="Ellipse_111">
			<path class="st0" d="M5.7,12.1c-3.4,0-6.1-2.8-6.1-6.1c0-3.4,2.8-6.1,6.1-6.1s6.1,2.8,6.1,6.1C11.8,9.4,9.1,12.1,5.7,12.1z
				 M5.7,0.9C2.9,0.9,0.6,3.2,0.6,6c0,2.8,2.3,5.1,5.1,5.1s5.1-2.3,5.1-5.1C10.8,3.2,8.5,0.9,5.7,0.9z"/>
		</g>
		<g id="Tracé_4023">
			<path class="st0" d="M9.2,5.7H6V2.4c0-0.1-0.1-0.2-0.3-0.2H5.6c-0.1,0-0.2,0.1-0.3,0.2v3.2H2.1C2,5.7,1.9,5.8,1.9,6v0
				c0,0.1,0.1,0.2,0.2,0.3h3.2v3.2c0,0.1,0.1,0.2,0.3,0.2h0.1C5.8,9.8,6,9.7,6,9.5V6.3h3.2c0.1,0,0.2-0.2,0.2-0.3v0
				C9.4,5.8,9.4,5.7,9.2,5.7z"/>
		</g>
	</g>
</g>
</svg>
