<?xml version="1.0" encoding="utf-8"?>
<!-- Generator: Adobe Illustrator 23.0.1, SVG Export Plug-In . SVG Version: 6.00 Build 0)  -->
<svg version="1.1" id="Calque_1" xmlns="http://www.w3.org/2000/svg" xmlns:xlink="http://www.w3.org/1999/xlink" x="0px" y="0px"
	 viewBox="0 0 30.9 21.4" style="enable-background:new 0 0 30.9 21.4;" xml:space="preserve">
<style type="text/css">
	.st0{fill:#FFFFFF;}
</style>
<g id="Groupe_6236" transform="translate(31 -62.5)">
	<g id="Groupe_5108" transform="translate(44 -6)">
		<g id="Groupe_5013" transform="translate(0 5.121)">
			<g id="Groupe_5012" transform="translate(-75 69)">
				<g id="Tracé_3968">
					<path class="st0" d="M6.4,14.6c-1.2,0-2.2-1-2.2-2.2c0-1.2,1-2.2,2.2-2.2c1.2,0,2.2,1,2.2,2.2l0,0C8.6,13.6,7.7,14.6,6.4,14.6
						L6.4,14.6z M23.4,14.6c-1.2,0-2.2-1-2.2-2.2c0-1.2,1-2.2,2.2-2.2c1.2,0,2.2,1,2.2,2.2l0,0C25.6,13.6,24.7,14.6,23.4,14.6
						L23.4,14.6L23.4,14.6z M9.7,0.9L6.6,5L2,6.2c-1.2,0.3-2,1.4-2,2.6v1.8c0,1.5,1.2,2.7,2.7,2.7h0.4c0.5,1.8,2.3,2.9,4.2,2.5
						c1.2-0.3,2.1-1.3,2.5-2.5h10.4c0.5,1.8,2.3,2.9,4.2,2.5c1.2-0.3,2.1-1.3,2.5-2.5h0.7c1.5,0,2.7-1.2,2.7-2.7v-2
						c0-1.1-0.6-2-1.6-2.5L26.2,5l-2.1-3.4c-0.3-0.5-0.8-1-1.4-1.2l0,1.4c0.2,0.1,0.3,0.3,0.4,0.5l2.2,3.6c0.1,0.1,0.2,0.2,0.3,0.2
						l2.6,1.2c0.5,0.2,0.9,0.8,0.8,1.3v2h0c0,0.8-0.6,1.5-1.4,1.5h-0.7c-0.2-1.9-1.9-3.2-3.8-3c-1.6,0.2-2.9,1.4-3,3H9.8
						c-0.2-1.9-1.9-3.2-3.8-3c-1.6,0.2-2.9,1.4-3,3H2.7c-0.8,0-1.4-0.7-1.4-1.5V8.8c0-0.7,0.4-1.2,1.1-1.4l4.8-1.3
						c0.1,0,0.2-0.1,0.3-0.2L10,2.6"/>
				</g>
			</g>
		</g>
		<g id="Groupe_5107" transform="translate(-64.418 69)">
			<g id="Ellipse_111">
				<path class="st0" d="M5.7,12.1c-3.4,0-6.1-2.8-6.1-6.1s2.8-6.1,6.1-6.1s6.1,2.8,6.1,6.1S9.1,12.1,5.7,12.1z M5.7,0.9
					C2.9,0.9,0.6,3.2,0.6,6s2.3,5.1,5.1,5.1s5.1-2.3,5.1-5.1S8.5,0.9,5.7,0.9z"/>
			</g>
			<g id="Tracé_4023">
				<path class="st0" d="M9.2,5.7H6V2.4c0-0.1-0.1-0.2-0.3-0.2H5.6c-0.1,0-0.2,0.1-0.3,0.2v3.2H2.1C2,5.7,1.9,5.8,1.9,6v0
					c0,0.1,0.1,0.2,0.2,0.3h3.2v3.2c0,0.1,0.1,0.2,0.3,0.2h0.1C5.8,9.8,6,9.7,6,9.5V6.3h3.2c0.1,0,0.2-0.2,0.2-0.3v0
					C9.4,5.8,9.4,5.7,9.2,5.7z"/>
			</g>
		</g>
	</g>
</g>
</svg>
