<?xml version="1.0" encoding="utf-8"?>
<!-- Generator: Adobe Illustrator 23.0.1, SVG Export Plug-In . SVG Version: 6.00 Build 0)  -->
<svg version="1.1" id="Calque_1" xmlns="http://www.w3.org/2000/svg" xmlns:xlink="http://www.w3.org/1999/xlink" x="0px" y="0px"
	 viewBox="0 0 32.9 33.4" style="enable-background:new 0 0 32.9 33.4;" xml:space="preserve">
<style type="text/css">
	.st0{fill:#FFFFFF;}
</style>
<g id="Groupe_6133" transform="translate(0)">
	<g id="Groupe_5126">
		<path id="Tracé_4033" class="st0" d="M8.5,17.2c-4.7,0-8.4-3.8-8.4-8.4s3.8-8.4,8.4-8.4s8.4,3.8,8.4,8.4c0,0,0,0,0,0
			C16.9,13.5,13.2,17.2,8.5,17.2z M8.5,1.8c-3.9,0-7,3.1-7,7c0,3.9,3.1,7,7,7c3.9,0,7-3.1,7-7c0,0,0,0,0,0
			C15.5,4.9,12.4,1.8,8.5,1.8L8.5,1.8z"/>
	</g>
	<g id="Groupe_5127" transform="translate(1.396 1.074)">
		<path id="Tracé_4034" class="st0" d="M0.8,14.3l-0.5,0.4c-0.4,0.4-0.4,1.1,0,1.5c0.4,0.4,1,0.4,1.4,0l0.7-0.7
			C1.9,15.2,1.3,14.8,0.8,14.3z"/>
		<path id="Tracé_4035" class="st0" d="M31.3,14.7L15.8,0.4L14,2l1.2,1.7l0.6-0.5l11.1,10.3v16.8H4.7V16.5C4,16.3,3.3,16,2.7,15.7
			v16.6H29V15.4l0.9,0.8c0.2,0.2,0.4,0.3,0.7,0.3l0,0c0.5,0,0.8-0.7,0.8-0.8C31.6,15.4,31.5,15,31.3,14.7z"/>
	</g>
	<path id="Tracé_4036" class="st0" d="M13.4,8.4H8.9V3.9C8.9,3.8,8.7,3.7,8.5,3.7H8.4c-0.2,0-0.3,0.1-0.4,0.3v4.5H3.6
		C3.5,8.4,3.3,8.6,3.4,8.8v0v0c0,0.2,0.1,0.3,0.3,0.4h4.5v4.5c0.1,0.2,0.2,0.3,0.4,0.3h0.1c0.2,0,0.3-0.1,0.4-0.3V9.2h4.5
		c0.2-0.1,0.3-0.2,0.3-0.4V8.8C13.7,8.6,13.5,8.4,13.4,8.4z"/>
</g>
</svg>
