<?xml version="1.0" encoding="utf-8"?>
<!-- Generator: Adobe Illustrator 23.0.1, SVG Export Plug-In . SVG Version: 6.00 Build 0)  -->
<svg version="1.1" id="Calque_1" xmlns="http://www.w3.org/2000/svg" xmlns:xlink="http://www.w3.org/1999/xlink" x="0px" y="0px"
	 viewBox="0 0 23.9 24.4" style="enable-background:new 0 0 23.9 24.4;" xml:space="preserve">
<style type="text/css">
	.st0{fill:#FF3200;}
	.st1{enable-background:new    ;}
	.st2{fill:#FFFFFF;}
</style>
<circle id="Ellipse_147" class="st0" cx="12.3" cy="12.2" r="11.5"/>
<g class="st1">
	<path class="st2" d="M16,15.5c0,0.3-0.1,0.5-0.3,0.7c-0.2,0.2-0.4,0.3-0.7,0.3c-0.3,0-0.6-0.1-0.8-0.4l-1.9-2.4l-1.9,2.4
		c-0.1,0.1-0.2,0.2-0.3,0.3s-0.3,0.1-0.4,0.1c-0.2,0-0.4-0.1-0.6-0.3c-0.2-0.2-0.3-0.4-0.3-0.6c0-0.2,0.1-0.4,0.2-0.6l2.2-2.7
		L8.9,9.5C8.7,9.3,8.7,9.1,8.7,8.9c0-0.3,0.1-0.5,0.3-0.7C9.1,8,9.4,7.9,9.6,7.9c0.3,0,0.6,0.1,0.8,0.4l2,2.4l1.8-2.4
		c0.2-0.3,0.5-0.4,0.8-0.4c0.3,0,0.5,0.1,0.6,0.3s0.3,0.4,0.3,0.6c0,0.2-0.1,0.4-0.2,0.6l-2.2,2.7l2.3,2.9
		C15.9,15.1,16,15.3,16,15.5z"/>
</g>
</svg>
