<?xml version="1.0" encoding="utf-8"?>
<!-- Generator: Adobe Illustrator 23.0.1, SVG Export Plug-In . SVG Version: 6.00 Build 0)  -->
<svg version="1.1" id="Calque_1" xmlns="http://www.w3.org/2000/svg" xmlns:xlink="http://www.w3.org/1999/xlink" x="0px" y="0px"
	 viewBox="0 0 12.9 14.4" style="enable-background:new 0 0 12.9 14.4;" xml:space="preserve">
<style type="text/css">
	.st0{fill:#959CA6;}
</style>
<path id="Tracé_3952" class="st0" d="M12.1,1.2h-1.5V0.6c0-0.1-0.1-0.2-0.2-0.2H8.8c-0.1,0-0.2,0.1-0.2,0.2c0,0,0,0,0,0v0.7H3.8
	V0.6c0-0.1-0.1-0.2-0.2-0.2c0,0,0,0,0,0H2c-0.1,0-0.2,0.1-0.2,0.2v0.7H0.3c-0.1,0-0.2,0.1-0.2,0.2v11.8c0,0.1,0.1,0.2,0.2,0.2h0
	h11.8c0.1,0,0.2-0.1,0.2-0.2v0V1.5C12.3,1.3,12.2,1.2,12.1,1.2L12.1,1.2z M9,0.8h1.1v1.3H9V0.8z M2.2,0.8h1.1v1.3H2.2V0.8z M0.5,1.7
	h1.3v0.7c0,0.1,0.1,0.2,0.2,0.2h1.5c0.1,0,0.2-0.1,0.2-0.2V1.7h4.8v0.7c0,0.1,0.1,0.2,0.2,0.2l0,0h1.5c0.1,0,0.2-0.1,0.2-0.2
	c0,0,0,0,0,0V1.7h1.3v2H0.5V1.7z M0.5,13V4.1h11.3V13L0.5,13z"/>
<path id="Tracé_3953" class="st0" d="M7.9,5.4H2v6.3h8.3V5.4H7.9z M6.4,5.8h1.5v1.5H6.4V5.8z M7.9,9.3H6.4V7.8h1.5V9.3z M4.4,7.8
	h1.5v1.5H4.4V7.8z M4.4,5.8h1.5v1.5H4.4V5.8z M2.5,5.8H4v1.5H2.5V5.8z M2.5,7.8H4v1.5H2.5V7.8z M4,11.3H2.5V9.7H4V11.3z M5.9,11.3
	H4.4V9.7h1.5L5.9,11.3z M7.9,11.3H6.4V9.7h1.5L7.9,11.3z M9.9,11.3H8.3V9.7h1.5V11.3z M9.9,9.3H8.3V7.8h1.5V9.3z M9.9,5.8v1.5H8.3
	V5.8L9.9,5.8z"/>
</svg>
