<?xml version="1.0" encoding="utf-8"?>
<!-- Generator: Adobe Illustrator 23.0.1, SVG Export Plug-In . SVG Version: 6.00 Build 0)  -->
<svg version="1.1" id="Calque_1" xmlns="http://www.w3.org/2000/svg" xmlns:xlink="http://www.w3.org/1999/xlink" x="0px" y="0px"
	 viewBox="0 0 32.9 34.4" style="enable-background:new 0 0 32.9 34.4;" xml:space="preserve">
<style type="text/css">
	.st0{fill:#252D3A;}
</style>
<g>
	<path class="st0" d="M25.1,11.5c-2.9,0-5.7,1.7-6.9,4.4c-0.3-0.1-0.5-0.2-0.8-0.3c2.3-1.4,3.9-4,3.9-7c0-4.5-3.7-8.2-8.2-8.2
		S4.8,4,4.8,8.6c0,3,1.6,5.5,3.9,7c-1.8,0.6-3.5,1.7-4.9,3.1c-2.5,2.6-3.9,6-3.8,9.7l0,0.5l2.1,0l0-0.5c-0.1-3.1,1.1-6,3.2-8.2
		c2-2.1,4.8-3.2,7.7-3.2c0,0,0.1,0,0.1,0c1.5,0,3.1,0.3,4.5,1c-0.3,2.3,0.4,4.5,2,6.2v9.5c0,0.6,0.5,1,1,1c0.3,0,0.5-0.1,0.7-0.3
		l3.7-3.5l3.7,3.5c0.4,0.4,1.1,0.4,1.4-0.1c0.2-0.2,0.3-0.4,0.3-0.7V24c1.3-1.4,2.1-3.2,2.1-5.1C32.6,14.8,29.2,11.5,25.1,11.5z
		 M13.1,14.7c-3.4,0-6.2-2.8-6.2-6.2s2.8-6.2,6.2-6.2s6.2,2.8,6.2,6.2S16.5,14.7,13.1,14.7z M28.9,22.7c-0.1,0.1-0.2,0.1-0.2,0.2
		c-2.1,1.8-5.1,1.8-7.3,0c-0.1-0.1-0.1-0.2-0.2-0.2c-1-1-1.6-2.4-1.6-3.8c0-3,2.6-5.4,5.5-5.3h0c3,0,5.5,2.4,5.5,5.3
		C30.6,20.3,30,21.7,28.9,22.7z M21.6,25.5c2.1,1.1,4.7,1.1,6.8,0l0,5.7l-2.7-2.5c-0.2-0.2-0.4-0.3-0.7-0.3c-0.3,0-0.5,0.1-0.7,0.3
		l-2.7,2.5V25.5z"/>
	<path class="st0" d="M28.7,17.3h-2.4l-0.7-2.2c-0.1-0.2-0.3-0.4-0.5-0.4c-0.2,0-0.4,0.1-0.5,0.4l-0.7,2.2h-2.4
		c-0.2,0-0.4,0.1-0.5,0.4c-0.1,0.2,0,0.5,0.2,0.6h0l1.9,1.4l-0.7,2.2c-0.1,0.2,0,0.5,0.2,0.6c0.1,0.1,0.2,0.1,0.3,0.1
		c0.1,0,0.2,0,0.3-0.1l1.9-1.4l1.9,1.4c0.1,0.1,0.2,0.1,0.3,0.1c0.1,0,0.2,0,0.3-0.1c0.2-0.1,0.3-0.4,0.2-0.6L27,19.7l1.9-1.4
		c0.2-0.1,0.3-0.4,0.2-0.6C29.1,17.5,28.9,17.3,28.7,17.3z M24,19l-0.9-0.6l1.1,0c0.2,0,0.4-0.1,0.5-0.4l0.4-1.1l0.4,1.1
		c0.1,0.2,0.3,0.4,0.5,0.4H27L26.1,19c-0.2,0.1-0.3,0.4-0.2,0.6l0.3,1L25.4,20c-0.1-0.1-0.2-0.1-0.3-0.1s-0.2,0-0.3,0.1l-0.9,0.7
		l0.3-1C24.2,19.4,24.2,19.2,24,19z"/>
</g>
</svg>
