<?xml version="1.0" encoding="utf-8"?>
<!-- Generator: Adobe Illustrator 23.0.1, SVG Export Plug-In . SVG Version: 6.00 Build 0)  -->
<svg version="1.1" id="Calque_1" xmlns="http://www.w3.org/2000/svg" xmlns:xlink="http://www.w3.org/1999/xlink" x="0px" y="0px"
	 viewBox="0 0 43.9 34.4" style="enable-background:new 0 0 43.9 34.4;" xml:space="preserve">
<style type="text/css">
	.st0{fill:#252D3A;}
</style>
<g>
	<path class="st0" d="M36.5,11.5c0,0-0.1,0-0.1,0c-2.9,0-5.6,1.7-6.9,4.4c-0.3-0.1-0.5-0.2-0.8-0.3c2.3-1.4,3.9-4,3.9-7
		c0-4.5-3.7-8.2-8.2-8.2S16.2,4,16.2,8.6c0,2.9,1.6,5.5,3.9,7c-1.8,0.6-3.5,1.7-4.9,3.1c-2.5,2.6-3.9,6-3.8,9.7l0,0.5l2.1,0l0-0.5
		c-0.1-3.1,1.1-6,3.2-8.2c2-2.1,4.8-3.2,7.7-3.2c0,0,0,0,0.1,0c1.6,0,3.1,0.3,4.5,1c-0.3,2.3,0.4,4.5,2,6.2v9.5c0,0.6,0.5,1,1,1
		c0.3,0,0.5-0.1,0.7-0.3l3.7-3.5l3.7,3.5c0.4,0.4,1.1,0.4,1.4-0.1c0.2-0.2,0.3-0.4,0.3-0.7V24c1.3-1.4,2.1-3.2,2.1-5.1
		C43.9,14.8,40.5,11.5,36.5,11.5z M18.2,8.6c0-3.4,2.8-6.2,6.2-6.2s6.2,2.8,6.2,6.2s-2.8,6.2-6.2,6.2S18.2,12,18.2,8.6z M36.4,13.5
		c3,0,5.4,2.4,5.4,5.3c0,1.4-0.6,2.8-1.6,3.8c-0.1,0.1-0.2,0.1-0.2,0.2c-2.1,1.8-5.1,1.8-7.3,0c-0.1-0.1-0.1-0.2-0.2-0.2
		c-1-1-1.6-2.4-1.6-3.8C30.9,15.9,33.4,13.5,36.4,13.5L36.4,13.5C36.4,13.5,36.4,13.5,36.4,13.5z M33,25.5c2.1,1.1,4.7,1.1,6.8,0
		l0,5.7l-2.7-2.5c-0.2-0.2-0.4-0.3-0.7-0.3c-0.3,0-0.5,0.1-0.7,0.3L33,31.2V25.5z"/>
	<path class="st0" d="M35.9,15.2l-0.7,2.2h-2.4c-0.2,0-0.4,0.1-0.5,0.4c-0.1,0.2,0,0.5,0.2,0.6h0l1.9,1.4l-0.7,2.2
		c-0.1,0.2,0,0.5,0.2,0.6c0.1,0.1,0.2,0.1,0.3,0.1c0.1,0,0.2,0,0.3-0.1l1.9-1.4l1.9,1.4c0.1,0.1,0.2,0.1,0.3,0.1
		c0.1,0,0.2,0,0.3-0.1c0.2-0.1,0.3-0.4,0.2-0.6l-0.7-2.2l1.9-1.4c0.2-0.1,0.3-0.4,0.2-0.6c-0.1-0.2-0.3-0.4-0.5-0.4h-2.4l-0.7-2.2
		c-0.1-0.2-0.3-0.4-0.5-0.4C36.1,14.8,35.9,14.9,35.9,15.2z M37.4,19c-0.2,0.1-0.3,0.4-0.2,0.6l0.3,1L36.7,20
		c-0.1-0.1-0.2-0.1-0.3-0.1c-0.1,0-0.2,0-0.3,0.1l-0.9,0.7l0.3-1c0.1-0.2,0-0.5-0.2-0.6l-0.9-0.6l1.1,0c0.2,0,0.4-0.1,0.5-0.4
		l0.4-1.1l0.4,1.1c0.1,0.2,0.3,0.4,0.5,0.4h1.1L37.4,19z"/>
	<path class="st0" d="M12.1,19.1l1.8-1.5c0.1-0.1,0.2-0.3,0.2-0.4c0-0.2,0-0.3-0.2-0.4l-1.7-1.9l1.7-0.4c0.2,0,0.3-0.1,0.4-0.3
		c0.1-0.1,0.1-0.3,0.1-0.5c0-0.2-0.1-0.3-0.3-0.4L5.8,8.2C5.6,8,5.2,8.1,5,8.4C4.9,8.5,4.9,8.7,4.9,8.8l2.2,9.4
		c0,0.2,0.1,0.3,0.3,0.4c0.1,0.1,0.3,0.1,0.5,0.1c0.1,0,0.2-0.1,0.3-0.2l1.2-1.5l1.9,2.1c0.1,0.1,0.3,0.2,0.4,0.2
		C11.9,19.3,12,19.2,12.1,19.1z M11,14L11,14c-0.2,0-0.3,0.1-0.4,0.3s-0.1,0.3-0.1,0.5c0,0.1,0.1,0.2,0.1,0.3l2,2.2l-0.9,0.7l-2-2.2
		c-0.1-0.1-0.3-0.2-0.4-0.2c0,0-0.1,0-0.1,0c-0.1,0-0.2,0.1-0.3,0.2L8,16.8L6.4,10l5.9,3.7L11,14z"/>
	<path class="st0" d="M5.4,6.3C5.5,6.2,5.5,6,5.5,5.9L5,3.8c0-0.2-0.1-0.3-0.3-0.4C4.6,3.4,4.4,3.3,4.3,3.4l-0.1,0
		C4.1,3.4,4,3.5,3.9,3.6C3.8,3.8,3.8,3.9,3.8,4.1l0.5,2c0,0.2,0.1,0.3,0.3,0.4c0.1,0.1,0.2,0.1,0.3,0.1c0,0,0.1,0,0.1,0
		C5.2,6.5,5.3,6.4,5.4,6.3z"/>
	<path class="st0" d="M3.3,9.7c0.1-0.1,0.1-0.3,0.1-0.5c0-0.2-0.1-0.3-0.3-0.4C3,8.7,2.8,8.7,2.7,8.7l-2,0.5
		C0.3,9.3,0.1,9.6,0.2,9.9c0,0.2,0.1,0.3,0.3,0.4c0.1,0.1,0.2,0.1,0.3,0.1c0,0,0.1,0,0.1,0l2-0.5C3.1,9.9,3.2,9.8,3.3,9.7z"/>
	<path class="st0" d="M7.7,7.8C7.6,7.9,7.6,8.1,7.6,8.2s0.1,0.3,0.3,0.4C8,8.7,8.1,8.7,8.2,8.7c0,0,0.1,0,0.1,0l2-0.5
		c0.2,0,0.3-0.1,0.4-0.3c0.1-0.1,0.1-0.3,0.1-0.5C10.8,7.2,10.4,7,10.1,7l-2,0.5C7.9,7.5,7.8,7.6,7.7,7.8z"/>
	<path class="st0" d="M1.1,6.6l1.8,1.1C2.9,7.8,3,7.8,3.2,7.8c0,0,0.1,0,0.1,0c0.2,0,0.3-0.1,0.4-0.3c0.2-0.3,0.1-0.6-0.2-0.8
		L1.7,5.6C1.4,5.4,1,5.5,0.9,5.8C0.7,6.1,0.8,6.5,1.1,6.6z"/>
	<path class="st0" d="M4.4,10.6c-0.1-0.1-0.3-0.1-0.5-0.1c-0.2,0-0.3,0.1-0.4,0.3l-1.1,1.8c-0.2,0.3-0.1,0.7,0.2,0.8
		c0.1,0.1,0.2,0.1,0.3,0.1c0.2,0,0.4-0.1,0.5-0.3l1.1-1.8c0.1-0.1,0.1-0.3,0.1-0.5C4.6,10.8,4.5,10.6,4.4,10.6z"/>
	<path class="st0" d="M6.7,6.9C6.8,6.9,6.9,6.9,7,6.9c0.2,0,0.4-0.1,0.5-0.3l1.1-1.8c0.2-0.3,0.1-0.6-0.2-0.8C8.3,4,8.1,4,8,4
		C7.8,4,7.7,4.1,7.6,4.3L6.5,6C6.4,6.2,6.4,6.3,6.4,6.5C6.5,6.6,6.6,6.8,6.7,6.9z"/>
</g>
</svg>
