<?xml version="1.0" encoding="utf-8"?>
<!-- Generator: Adobe Illustrator 23.0.1, SVG Export Plug-In . SVG Version: 6.00 Build 0)  -->
<svg version="1.1" id="Calque_1" xmlns="http://www.w3.org/2000/svg" xmlns:xlink="http://www.w3.org/1999/xlink" x="0px" y="0px"
	 viewBox="0 0 19.9 24.4" style="enable-background:new 0 0 19.9 24.4;" xml:space="preserve">
<style type="text/css">
	.st0{fill:#BAC3D2;}
</style>
<g id="Groupe_4990" transform="translate(-328.407 -1316.312)">
	<g id="Groupe_4988" transform="translate(328.407 1316.312)">
		<g id="Groupe_4987">
			<path id="Tracé_3955" class="st0" d="M19.9,14.4V7.9c0-0.2-0.1-0.5-0.3-0.6l-7.1-6.6c-0.2-0.1-0.4-0.2-0.6-0.2h-11
				c-0.5,0-0.9,0.4-0.9,0.9v18.2c0,0.5,0.4,0.9,0.9,0.9c0.5,0,0.8-0.4,0.9-0.8c0,0,0,0,0-0.1V2.1h9v6.8c0,0.5,0.4,0.9,0.9,0.9H18
				c0,0,0.1,0,0.1,0v12.8H1.8v-3.5c0-0.5-0.4-0.9-0.9-0.9c-0.5,0-0.8,0.4-0.9,0.8c0,0,0,0,0,0.1v4.4c0,0.5,0.4,0.9,0.9,0.9H19
				c0.5,0,0.9-0.4,0.9-0.9L19.9,14.4L19.9,14.4z M12.6,3l5.3,5h-5.3V3z"/>
		</g>
	</g>
	<g id="Groupe_4989" transform="translate(334.698 1327.281)">
		<path id="Tracé_3957" class="st0" d="M6.5,8.9l-0.2-1c0-0.1,0-0.1-0.1-0.1c-0.1,0-0.1,0-0.2,0l0,0l-0.1,0l-0.1,0c0,0-0.1,0-0.2,0
			s-0.1,0-0.2,0s-0.1,0-0.2,0s-0.2,0-0.2,0c-1.1,0-2-0.6-2.4-1.6h2.5c0.1,0,0.2-0.1,0.2-0.2l0.2-0.7c0-0.1,0-0.1,0-0.2
			c0,0-0.1-0.1-0.2-0.1H2.3c0-0.2,0-0.4,0-0.7h3.1c0.1,0,0.2-0.1,0.2-0.2v0l0.2-0.7c0-0.1-0.1-0.2-0.2-0.2c0,0,0,0,0,0h0h-3
			c0.2-0.5,0.5-0.9,1-1.1C4,1.9,4.5,1.8,5,1.8c0.1,0,0.1,0,0.2,0c0.1,0,0.1,0,0.2,0c0.1,0,0.1,0,0.2,0l0.1,0l0.1,0l0.1,0l0,0
			c0.1,0,0.1,0,0.2,0c0,0,0.1-0.1,0.1-0.1l0.3-1c0-0.1,0-0.1,0-0.2c0,0-0.1-0.1-0.1-0.1C5.8,0.4,5.4,0.4,5,0.4
			c-0.9,0-1.8,0.3-2.6,0.8C1.7,1.7,1.2,2.5,0.9,3.3H0.3c-0.1,0-0.2,0.1-0.2,0.2c0,0,0,0,0,0v0.7c0,0.1,0.1,0.2,0.2,0.2h0.4
			c0,0.2,0,0.4,0,0.7H0.3c-0.1,0-0.2,0.1-0.2,0.2v0.7c0,0.1,0.1,0.2,0.2,0.2h0.6c0.2,0.9,0.8,1.7,1.5,2.2C3.1,9.1,4.1,9.3,5,9.3
			c0.1,0,0.2,0,0.2,0c0.1,0,0.2,0,0.2,0c0.1,0,0.1,0,0.2,0s0.1,0,0.2,0l0.2,0c0.1,0,0.1,0,0.1,0s0.1,0,0.1,0c0,0,0,0,0.1,0l0,0
			c0,0,0.1,0,0.1-0.1C6.5,9,6.5,8.9,6.5,8.9z"/>
	</g>
</g>
</svg>
