<?xml version="1.0" encoding="utf-8"?>
<!-- Generator: Adobe Illustrator 23.0.1, SVG Export Plug-In . SVG Version: 6.00 Build 0)  -->
<svg version="1.1" id="Calque_1" xmlns="http://www.w3.org/2000/svg" xmlns:xlink="http://www.w3.org/1999/xlink" x="0px" y="0px"
	 viewBox="0 0 19.9 22.4" style="enable-background:new 0 0 19.9 22.4;" xml:space="preserve">
<style type="text/css">
	.st0{fill:#252D3A;}
</style>
<g id="Groupe_5418" transform="translate(-42.299 -65.213)">
	<path id="Tracé_4105" class="st0" d="M51,68.4v7.9c0,0.7,0.5,1.2,1.2,1.2c0.7,0,1.2-0.5,1.2-1.2v-7.9"/>
	<path id="Tracé_4106" class="st0" d="M62.1,77c0-3.3-1.6-6.4-4.4-8.2c-0.6-0.4-1.3-0.2-1.7,0.4c-0.3,0.5-0.2,1.2,0.3,1.6
		c3.4,2.3,4.3,6.9,2,10.3c-2.3,3.4-6.9,4.3-10.3,2c-3.4-2.3-4.3-6.9-2-10.3c0.5-0.8,1.2-1.5,2-2c0.6-0.4,0.7-1.1,0.3-1.7
		c-0.4-0.6-1.1-0.7-1.7-0.3c-4.5,3-5.7,9.2-2.7,13.7c3,4.5,9.2,5.7,13.7,2.7C60.5,83.3,62.1,80.3,62.1,77L62.1,77z"/>
	<path id="Tracé_4107" class="st0" d="M53.4,68.5v-1.8c0-0.7-0.5-1.2-1.2-1.2c-0.7,0-1.2,0.5-1.2,1.2v1.8"/>
</g>
</svg>
