<?xml version="1.0" encoding="utf-8"?>
<!-- Generator: Adobe Illustrator 23.0.1, SVG Export Plug-In . SVG Version: 6.00 Build 0)  -->
<svg version="1.1" id="Calque_1" xmlns="http://www.w3.org/2000/svg" xmlns:xlink="http://www.w3.org/1999/xlink" x="0px" y="0px"
	 viewBox="0 0 21.9 22.4" style="enable-background:new 0 0 21.9 22.4;" xml:space="preserve">
<style type="text/css">
	.st0{fill:#BAC3D2;}
</style>
<g id="Groupe_5287" transform="translate(2449.139 -1471.705)">
	<path id="Tracé_4077" class="st0" d="M-2438.7,1491c-0.4,0-0.7-0.2-1-0.4l-5.1-5.1c-0.6-0.6-0.6-1.5,0-2c0.6-0.6,1.5-0.6,2,0
		l4.1,4.1l9.1-9.1c0.6-0.6,1.5-0.6,2,0c0.6,0.6,0.6,1.5,0,2l-10.2,10.2C-2437.9,1490.8-2438.3,1491-2438.7,1491z"/>
	<path id="Tracé_4078" class="st0" d="M-2433.7,1487.2v5.6h-14.4V1473h10.4v3.6c0,0.2,0.2,0.5,0.5,0.5h3.6v5.1l0.9-0.9v-4.6
		c0,0,0,0,0,0c0,0,0-0.1,0-0.1c0,0,0,0,0,0c0,0-0.1-0.1-0.1-0.1l-4.1-4.1c0,0-0.1-0.1-0.1-0.1c0,0,0,0,0,0c0,0-0.1,0-0.1,0
		c0,0,0,0,0,0h-11.3c-0.2,0-0.5,0.2-0.5,0.5v20.7c0,0.2,0.2,0.5,0.5,0.5h15.3c0.2,0,0.5-0.2,0.5-0.5v-7L-2433.7,1487.2z
		 M-2436.9,1473.6l2.5,2.5h-2.5V1473.6z"/>
</g>
</svg>
