<?xml version="1.0" encoding="utf-8"?>
<!-- Generator: Adobe Illustrator 23.0.1, SVG Export Plug-In . SVG Version: 6.00 Build 0)  -->
<svg version="1.1" id="Calque_1" xmlns="http://www.w3.org/2000/svg" xmlns:xlink="http://www.w3.org/1999/xlink" x="0px" y="0px"
	 viewBox="0 0 15.9 16.4" style="enable-background:new 0 0 15.9 16.4;" xml:space="preserve">
<style type="text/css">
	.st0{fill:#81D742;}
</style>
<g id="Groupe_5640" transform="translate(0 0)">
	<path id="Tracé_4142" class="st0" d="M15.9,7.6C15.8,7.6,15.8,7.5,15.9,7.6c0-0.1,0-0.1,0-0.1c0,0,0-0.1-0.1-0.1l0,0l-1.9-1.9V3.7
		c0,0,0,0,0,0c0,0,0-0.1,0-0.1c0,0,0,0,0,0c0,0,0-0.1-0.1-0.1l-3-3c0,0-0.1,0-0.1-0.1c0,0,0,0,0,0c0,0-0.1,0-0.1,0c0,0,0,0,0,0H2.4
		C2.2,0.4,2,0.5,2,0.7v4.8L0.2,7.4l0,0c0,0-0.1,0.1-0.1,0.1c0,0,0,0,0,0c0,0,0,0.1,0,0.1c0,0,0,0,0,0v6.3c0,0.2,0.1,0.3,0.3,0.3H2
		v1.6c0,0.2,0.1,0.3,0.3,0.3h11.2c0.2,0,0.3-0.1,0.3-0.3v-1.6h1.6c0.2,0,0.3-0.1,0.3-0.3L15.9,7.6C15.9,7.6,15.9,7.6,15.9,7.6z
		 M14.7,7.3h-0.9V6.4L14.7,7.3z M12.8,3.3h-1.8V1.5L12.8,3.3z M2.7,1h7.6v2.6c0,0.2,0.1,0.3,0.3,0.3h2.6v3.3H2.7L2.7,1L2.7,1z
		 M2,6.4v0.9H1.2L2,6.4z M13.2,15.5H2.7v-1.3h10.5L13.2,15.5z M15.2,13.5H0.7V7.9h14.5V13.5z"/>
	<path id="Tracé_4143" class="st0" d="M7.8,9.5c0,0,0.1-0.1,0.2-0.1c0.1,0,0.1,0,0.2,0c0.2,0,0.4,0.1,0.5,0.3L9,9.2
		C8.9,9.1,8.8,9,8.6,8.9C8.5,8.8,8.3,8.8,8.1,8.8c-0.1,0-0.3,0-0.4,0.1C7.5,8.9,7.4,9,7.3,9.1C7.2,9.2,7.1,9.3,7.1,9.5
		C7,9.6,7,9.8,7,10c0,0.1,0,0.3,0.1,0.4c0,0.1,0.1,0.2,0.2,0.3c0.1,0.1,0.2,0.2,0.3,0.2c0.1,0.1,0.2,0.1,0.3,0.2
		c0.2,0.1,0.3,0.2,0.4,0.3c0.1,0.1,0.2,0.3,0.2,0.4c0,0.1,0,0.3-0.1,0.4c-0.1,0.1-0.2,0.1-0.4,0.1c-0.1,0-0.3,0-0.4-0.1
		c-0.1-0.1-0.2-0.1-0.3-0.2l-0.4,0.5c0.1,0.1,0.3,0.3,0.4,0.3C7.4,12.9,7.7,13,7.9,13c0.1,0,0.3,0,0.4-0.1c0.1-0.1,0.3-0.1,0.4-0.2
		c0.1-0.1,0.2-0.2,0.2-0.4C9,12.1,9,11.9,9,11.8c0-0.1,0-0.3-0.1-0.4c0-0.1-0.1-0.2-0.2-0.3c-0.1-0.1-0.2-0.2-0.3-0.2
		c-0.1-0.1-0.2-0.1-0.3-0.2c-0.1-0.1-0.3-0.2-0.4-0.3c-0.1-0.1-0.2-0.2-0.2-0.4c0-0.1,0-0.2,0-0.3C7.7,9.6,7.7,9.6,7.8,9.5z"/>
	<path id="Tracé_4144" class="st0" d="M5.1,9.9c0.1-0.1,0.1-0.2,0.3-0.3c0.1-0.1,0.2-0.1,0.4-0.1c0.2,0,0.5,0.1,0.6,0.3l0.4-0.5
		C6.5,9.1,6.4,9,6.2,8.9C6,8.8,5.8,8.8,5.6,8.8C5.4,8.8,5.2,8.9,5,9C4.8,9.1,4.7,9.2,4.6,9.4c-0.1,0.2-0.2,0.4-0.3,0.7
		c-0.1,0.3-0.1,0.6-0.1,0.8c0,0.3,0,0.6,0.1,0.8c0.1,0.2,0.2,0.5,0.3,0.7c0.1,0.2,0.3,0.3,0.5,0.4C5.2,12.9,5.4,13,5.6,13
		c0.2,0,0.4,0,0.6-0.1c0.2-0.1,0.3-0.2,0.4-0.4L6.2,12c-0.1,0.1-0.1,0.2-0.2,0.2c-0.1,0.1-0.2,0.1-0.3,0.1c-0.1,0-0.3,0-0.4-0.1
		c-0.1-0.1-0.2-0.2-0.3-0.3c-0.1-0.1-0.1-0.3-0.2-0.5c0-0.2-0.1-0.4-0.1-0.6c0-0.2,0-0.4,0.1-0.6C4.9,10.2,5,10,5.1,9.9z"/>
	<path id="Tracé_4145" class="st0" d="M10.6,12.1L10.6,12.1L9.9,8.9H9.2l1,4H11l1-4h-0.7L10.6,12.1z"/>
</g>
</svg>
