<?xml version="1.0" encoding="utf-8"?>
<!-- Generator: Adobe Illustrator 23.0.1, SVG Export Plug-In . SVG Version: 6.00 Build 0)  -->
<svg version="1.1" id="Calque_1" xmlns="http://www.w3.org/2000/svg" xmlns:xlink="http://www.w3.org/1999/xlink" x="0px" y="0px"
	 viewBox="0 0 39.9 35.4" style="enable-background:new 0 0 39.9 35.4;" xml:space="preserve">
<style type="text/css">
	.st0{fill:#252D3A;}
</style>
<path class="st0" d="M38.2,24.9l-2.2-1l-2-3.2c-0.6-1-1.7-1.6-2.9-1.6c0,0,0,0,0,0h-6.5c-0.2-0.2-0.4-0.4-0.6-0.6
	c-1.5-1.5-3.3-2.6-5.3-3.3c3.7-2.5,4.6-7.6,2.1-11.3c-1.5-2.2-4-3.5-6.7-3.5c-1.6,0-3.2,0.5-4.6,1.4C7.7,3,6.5,4.9,6.1,7
	C5.7,9.1,6.2,11.3,7.4,13c0.6,0.8,1.3,1.5,2.1,2.1c-5.6,2-9.4,7.3-9.4,13.2h2.2l0,0c0-6.5,5.3-11.8,11.8-11.8c2.7,0,5.4,1,7.5,2.7
	c-0.7,0.2-1.4,0.6-1.8,1.2l-2.6,3.4L12.9,25c-1.2,0.3-2.1,1.4-2.1,2.7v1.7c0,1.5,1.2,2.8,2.8,2.8h0.2c0.5,1.5,1.8,2.4,3.3,2.4
	c0.3,0,0.6,0,0.9-0.1c1.2-0.3,2.1-1.2,2.5-2.3h9.4c0.6,1.8,2.4,2.8,4.2,2.3c1.2-0.3,2.1-1.2,2.5-2.3h0.5c1.5,0,2.8-1.3,2.8-2.8v-1.9
	C39.8,26.4,39.2,25.4,38.2,24.9z M14.1,14.4c-3.3,0-5.9-2.6-5.9-5.9c0-3.3,2.6-5.9,5.9-5.9l0,0c3.3,0,5.9,2.6,5.9,5.9
	C19.9,11.7,17.3,14.4,14.1,14.4z M38.1,29.5c0,0.6-0.5,1-1.1,1h-0.4c-0.3-1.8-2-3.1-3.8-2.9c-1.5,0.2-2.8,1.4-3.1,2.9h-9.2
	c-0.3-1.8-2-3.1-3.8-2.9c-1.5,0.2-2.8,1.4-3.1,2.9h-0.1c-0.3,0-0.6-0.1-0.8-0.3s-0.3-0.5-0.3-0.8v-1.7c0-0.5,0.3-1,0.8-1.1l4.6-1.2
	c0.2,0,0.3-0.2,0.4-0.3l2.7-3.6c0.3-0.4,0.9-0.7,1.4-0.7h8.6c0,0,0,0,0,0c0.6,0,1.2,0.3,1.5,0.8l2.1,3.4c0.1,0.1,0.2,0.3,0.4,0.3
	l2.4,1.1c0.4,0.2,0.7,0.6,0.7,1v1.9L38.1,29.5z M17.1,32.9c-1,0-1.8-0.8-1.8-1.8s0.8-1.8,1.8-1.8s1.8,0.8,1.8,1.8
	C18.9,32.1,18.1,32.9,17.1,32.9L17.1,32.9z M33.2,29.3c1,0,1.8,0.8,1.8,1.8s-0.8,1.8-1.8,1.8s-1.8-0.8-1.8-1.8S32.2,29.3,33.2,29.3z
	"/>
</svg>
