<?xml version="1.0" encoding="utf-8"?>
<!-- Generator: Adobe Illustrator 23.0.1, SVG Export Plug-In . SVG Version: 6.00 Build 0)  -->
<svg version="1.1" id="Calque_1" xmlns="http://www.w3.org/2000/svg" xmlns:xlink="http://www.w3.org/1999/xlink" x="0px" y="0px"
	 viewBox="0 0 28.9 28.4" style="enable-background:new 0 0 28.9 28.4;" xml:space="preserve">
<style type="text/css">
	.st0{fill:#252D3A;}
</style>
<g id="Groupe_5081" transform="translate(-60.055 -356.741)">
	<path id="Tracé_4016" class="st0" d="M84,374.8c-1.5-1.5-3.3-2.6-5.3-3.3c3.7-2.5,4.6-7.6,2.1-11.2c-2.5-3.7-7.6-4.6-11.2-2.1
		c-3.7,2.5-4.6,7.6-2.1,11.2c0.6,0.8,1.3,1.5,2.1,2.1c-5.6,2-9.4,7.3-9.4,13.2h2.2c0-6.5,5.3-11.8,11.8-11.8s11.8,5.3,11.8,11.8l0,0
		h2.2C88.1,381,86.6,377.5,84,374.8z M74.1,370.7c-3.3,0-5.9-2.6-5.9-5.9s2.6-5.9,5.9-5.9c3.3,0,5.9,2.6,5.9,5.9l0,0
		C80,368.1,77.4,370.7,74.1,370.7L74.1,370.7z"/>
</g>
</svg>
