<?xml version="1.0" encoding="utf-8"?>
<!-- Generator: Adobe Illustrator 23.0.1, SVG Export Plug-In . SVG Version: 6.00 Build 0)  -->
<svg version="1.1" id="Calque_1" xmlns="http://www.w3.org/2000/svg" xmlns:xlink="http://www.w3.org/1999/xlink" x="0px" y="0px"
	 viewBox="0 0 15.9 16.4" style="enable-background:new 0 0 15.9 16.4;" xml:space="preserve">
<style type="text/css">
	.st0{fill:#81D742;}
</style>
<path id="Tracé_4227" class="st0" d="M14.7,1.1c-1-1-2.5-1-3.5,0c0,0,0,0,0,0l-9.7,9.7c-0.1,0.1-0.1,0.1-0.1,0.2l-1.3,4.6
	C0,16,0.2,16.3,0.5,16.3c0.1,0,0.2,0,0.3,0l4.6-1.3c0.1,0,0.2-0.1,0.2-0.1l9.7-9.7c1-1,1-2.5,0-3.5L14.7,1.1z M2.7,11.2l8-8l2.6,2.6
	l-8,8L2.7,11.2z M2.2,12.2l2.1,2.1L1.4,15L2.2,12.2z M14.6,4.4L14,5l-2.6-2.6L12,1.9c0.5-0.5,1.4-0.5,1.9,0c0,0,0,0,0,0l0.6,0.6
	C15.1,3,15.1,3.9,14.6,4.4L14.6,4.4z"/>
</svg>
