<?xml version="1.0" encoding="utf-8"?>
<!-- Generator: Adobe Illustrator 23.0.1, SVG Export Plug-In . SVG Version: 6.00 Build 0)  -->
<svg version="1.1" id="Calque_1" xmlns="http://www.w3.org/2000/svg" xmlns:xlink="http://www.w3.org/1999/xlink" x="0px" y="0px"
	 viewBox="0 0 17.9 16.4" style="enable-background:new 0 0 17.9 16.4;" xml:space="preserve">
<style type="text/css">
	.st0{fill:#252D3A;}
</style>
<path id="Tracé_4121" class="st0" d="M15.7,1.1c-1-1-2.5-1-3.5,0c0,0,0,0,0,0l-9.7,9.7c-0.1,0.1-0.1,0.1-0.1,0.2l-1.3,4.6
	C1,16,1.2,16.3,1.5,16.3c0.1,0,0.2,0,0.3,0l4.6-1.3c0.1,0,0.2-0.1,0.2-0.1l9.7-9.7c1-1,1-2.5,0-3.5L15.7,1.1z M3.7,11.2l8-8l2.6,2.6
	l-8,8L3.7,11.2z M3.2,12.2l2.1,2.1L2.4,15L3.2,12.2z M15.6,4.4L15,5l-2.6-2.6L13,1.9c0.5-0.5,1.4-0.5,1.9,0c0,0,0,0,0,0l0.6,0.6
	C16.1,3,16.1,3.9,15.6,4.4L15.6,4.4z"/>
</svg>
