<?xml version="1.0" encoding="utf-8"?>
<!-- Generator: Adobe Illustrator 23.0.1, SVG Export Plug-In . SVG Version: 6.00 Build 0)  -->
<svg version="1.1" id="Calque_1" xmlns="http://www.w3.org/2000/svg" xmlns:xlink="http://www.w3.org/1999/xlink" x="0px" y="0px"
	 viewBox="0 0 176.9 80.4" style="enable-background:new 0 0 176.9 80.4;" xml:space="preserve">
<style type="text/css">
	.st0{fill:none;stroke:#252D3A;stroke-width:0.75;stroke-miterlimit:10;}
	.st1{fill:none;stroke:#252D3A;stroke-width:0.75;stroke-linecap:round;stroke-linejoin:round;}
	.st2{fill:none;stroke:#252D3A;stroke-linecap:round;stroke-linejoin:round;}
	.st3{fill:#FFFFFF;stroke:#252D3A;stroke-width:0.75;stroke-miterlimit:10;}
</style>
<g id="Groupe_5060" transform="translate(177.314 79.326) rotate(180)">
	<ellipse id="Ellipse_99" class="st0" cx="168.8" cy="39.1" rx="0.7" ry="1.4"/>
	<g id="Groupe_5036" transform="translate(0.829 3.74)">
		<g id="Groupe_5035" transform="translate(158.114 0.997)">
			<path id="Tracé_3979" class="st0" d="M-0.1,69.1c0,0,10.6-2.7,13.1-11.4c0,0,2.2-6.8,2.2-23.4S13.1,11,13.1,11
				C10.5,2.3-0.1-0.4-0.1-0.4"/>
		</g>
		<path id="Tracé_3980" class="st0" d="M176.1,35.4c0,0-0.5-18.8-1.2-22.6s-1.2-10.4-18.1-12.3S29,0.5,29,0.5
			c-17.1,1.9-21.6,9-21.6,9c-9,13.3-7.4,24.8-7.4,24.8v2.3c0,0-1.6,11.4,7.4,24.8c0,0,4.5,7.1,21.6,9c0,0,110.8,1.9,127.7,0
			S174,61.9,174.8,58S176.1,35.4,176.1,35.4"/>
	</g>
	<g id="Groupe_5038" transform="translate(0 4.568)">
		<g id="Groupe_5037" transform="translate(3.758)">
			<path id="Tracé_3981" class="st1" d="M26.1-0.4c0,0-13.3,1.6-19.8,10.5s-6.4,20.4-6.4,20.4v8c0,0,0,11.5,6.4,20.4
				s19.8,10.5,19.8,10.5"/>
			<path id="Tracé_3982" class="st1" d="M19.6,67.9c0,0-13.7-7.5-15.6-25.8"/>
			<path id="Tracé_3983" class="st1" d="M19.6,1.2c0,0-13.7,7.5-15.6,25.8"/>
		</g>
		<path id="Tracé_3984" class="st1" d="M12.1,34.5c0,4,0.4,7.9,1,11.8c0,0-10-7.4-13.2-11.8c3.2-4.3,13.2-11.8,13.2-11.8
			C12.5,26.6,12.2,30.6,12.1,34.5z"/>
	</g>
	<g id="Groupe_5058" transform="translate(16.753 3.741)">
		<g id="Groupe_5049">
			<g id="Groupe_5041" transform="translate(0 3.241)">
				<g id="Groupe_5039" transform="translate(0 0.634)">
					<path id="Tracé_3985" class="st1" d="M-0.1,17.2c0,0,34.3-16.2,48.9-17.6"/>
					<path id="Tracé_3986" class="st1" d="M-0.1,45.8c0,0,34.3,16.2,48.9,17.6"/>
				</g>
				<g id="Groupe_5040" transform="translate(4.447 0)">
					<path id="Tracé_3987" class="st2" d="M46.8,64.4c0,0-31.6,1.7-46.9-4.3"/>
					<path id="Tracé_3988" class="st2" d="M46.8-0.1c0,0-31.6-1.7-46.9,4.3"/>
				</g>
			</g>
			<g id="Groupe_5048" transform="translate(69.183)">
				<g id="Groupe_5042">
					<path id="Tracé_3989" class="st0" d="M-0.1-0.4c0,0,58,2.6,83.7,7.8"/>
					<path id="Tracé_3990" class="st0" d="M-0.1,71.1c0,0,58-2.6,83.7-7.8"/>
				</g>
				<g id="Groupe_5047" transform="translate(25.712 4.312)">
					<g id="Groupe_5044" transform="translate(23.254 3.805)">
						<g id="Groupe_5043">
							<path id="Tracé_3991" class="st0" d="M-0.1-0.4c0,0,25.4,0.6,35.8,1.1"/>
							<path id="Tracé_3992" class="st0" d="M-0.1,54.9c0,0,25.4-0.6,35.8-1.1"/>
						</g>
						<path id="Tracé_3993" class="st0" d="M8.9,54.3c0,0,3.6-7.6,3.6-27.1S8.9,0.2,8.9,0.2"/>
						<path id="Tracé_3994" class="st0" d="M29.8,53.8c0,0,1.3-3,1.3-26.6S29.8,0.7,29.8,0.7"/>
					</g>
					<g id="Groupe_5046" transform="translate(0 0)">
						<path id="Tracé_3995" class="st0" d="M-0.1,62c0,0,16.1,2.2,23.3-3.4c0,0,5.9-4.7,5.9-17.4V20.8c0-12.7-5.9-17.4-5.9-17.4
							C16.1-2.1-0.1,0.1-0.1,0.1"/>
						<g id="Groupe_5045" transform="translate(25.581 22.486)">
							<path id="Tracé_3996" class="st0" d="M3.5,17.4c-1.6,0.3-3.2-0.7-3.5-2.3c-0.1-0.3-0.1-0.6-0.1-0.9V2.9
								c-0.2-1.6,1-3.1,2.6-3.3c0.3,0,0.6,0,0.9,0.1"/>
						</g>
					</g>
				</g>
			</g>
		</g>
		<g id="Groupe_5057" transform="translate(34.385 3.068)">
			<path id="Tracé_3997" class="st0" d="M83.7,32.3c0,0,0,13.5-1.4,20.6S70.4,63.2,46.5,64.4s-30.9,0-30.9,0S0.1,63-0.1,32.3
				C0.1,1.6,15.6,0.2,15.6,0.2s7-1.2,30.9,0s34.4,4.3,35.8,11.5S83.7,32.3,83.7,32.3z"/>
			<g id="Groupe_5056" transform="translate(2.223 0.342)">
				<path id="Tracé_3998" class="st1" d="M11.5,60.7c0,0-11.5-6.4-11.5-29V32c0-22.5,11.5-29,11.5-29"/>
				<g id="Groupe_5055" transform="translate(8.754)">
					<g id="Groupe_5050" transform="translate(49.056 1.502)">
						<line id="Ligne_19" class="st0" x1="1" y1="-0.4" x2="-0.1" y2="8.5"/>
						<line id="Ligne_20" class="st0" x1="21.7" y1="8.1" x2="5.8" y2="14.1"/>
					</g>
					<g id="Groupe_5051" transform="translate(49.056 48.65)">
						<line id="Ligne_21" class="st0" x1="1" y1="14.1" x2="-0.1" y2="5.2"/>
						<line id="Ligne_22" class="st0" x1="21.7" y1="5.7" x2="5.8" y2="-0.4"/>
					</g>
					<path id="Tracé_3999" class="st0" d="M54.9,32v15.7c0,3.3-2.6,6.1-5.9,6.3c-10.5,0.6-21,0.4-24.8,0.3c-1.2,0-2.3-0.6-3-1.5
						c-1.9-2.3-4.8-8-4.8-20.8s2.9-18.5,4.8-20.8c0.7-0.9,1.8-1.5,3-1.5C28,9.6,38.5,9.4,49,10c3.3,0.2,5.9,2.9,5.9,6.3L54.9,32z"/>
					<line id="Ligne_23" class="st1" x1="57.6" y1="14.6" x2="57.6" y2="49.3"/>
					<g id="Groupe_5054">
						<g id="Groupe_5052">
							<line id="Ligne_24" class="st0" x1="21.2" y1="11.2" x2="-0.1" y2="1.8"/>
							<line id="Ligne_25" class="st0" x1="6.5" y1="-0.4" x2="28.8" y2="9.6"/>
						</g>
						<g id="Groupe_5053" transform="translate(0 53.111)">
							<line id="Ligne_26" class="st0" x1="21.2" y1="-0.4" x2="-0.1" y2="9"/>
							<line id="Ligne_27" class="st0" x1="6.5" y1="11.2" x2="28.2" y2="1.2"/>
						</g>
					</g>
				</g>
			</g>
		</g>
	</g>
	<g id="Groupe_5059" transform="translate(68.661 0)">
		<path id="Tracé_4000" class="st3" d="M-0.1,6.8c2-2.6,4.3-4.9,6.7-7.1C6.8-0.4,7-0.4,7.2-0.2C7.2-0.2,7.2-0.1,7.2,0
			C6.6,3.1,6.1,6.3,5.9,9.4L-0.1,6.8z"/>
		<path id="Tracé_4001" class="st3" d="M-0.1,71.4c2,2.6,4.3,4.9,6.7,7.1c0.1,0.1,0.3,0.1,0.5-0.1c0.1-0.1,0.1-0.2,0.1-0.3
			c-0.7-3.1-1.1-6.3-1.4-9.5L-0.1,71.4z"/>
	</g>
</g>
</svg>
