<?xml version="1.0" encoding="utf-8"?>
<!-- Generator: Adobe Illustrator 23.0.1, SVG Export Plug-In . SVG Version: 6.00 Build 0)  -->
<svg version="1.1" id="Calque_1" xmlns="http://www.w3.org/2000/svg" xmlns:xlink="http://www.w3.org/1999/xlink" x="0px" y="0px"
	 viewBox="0 0 22.9 23.4" style="enable-background:new 0 0 22.9 23.4;" xml:space="preserve">
<style type="text/css">
	.st0{fill:#BAC3D2;}
</style>
<g id="Groupe_5349" transform="translate(-955 -1475.163)">
	<path id="Tracé_4093" class="st0" d="M966.2,1480.9c-0.7,0-1.4,0.6-1.4,1.4c0,0.7,0.6,1.4,1.4,1.4c0.7,0,1.4-0.6,1.4-1.4
		C967.6,1481.5,967,1480.9,966.2,1480.9z"/>
	<path id="Tracé_4094" class="st0" d="M966.2,1485.7c-0.6,0-1,0.5-1,1l0,0v6.1c0,0.6,0.5,1,1,1s1-0.5,1-1l0,0v-6.1
		C967.2,1486.1,966.8,1485.7,966.2,1485.7L966.2,1485.7z"/>
	<path id="Tracé_3957" class="st0" d="M977.7,1484.3l-0.2-1c0-0.1,0-0.1-0.1-0.1c-0.1,0-0.1,0-0.2,0l0,0l-0.1,0l-0.1,0
		c0,0-0.1,0-0.2,0s-0.1,0-0.2,0s-0.1,0-0.2,0s-0.2,0-0.2,0c-1.1,0-2.1-0.6-2.5-1.7h2.5c0.1,0,0.2-0.1,0.2-0.2l0.2-0.7
		c0-0.1,0-0.1,0-0.2c0-0.1-0.1-0.1-0.2-0.1h-3c0-0.2,0-0.5,0-0.7h3.2c0.1,0,0.2-0.1,0.2-0.2c0,0,0,0,0,0c0,0,0,0,0,0l0.2-0.7
		c0-0.1-0.1-0.2-0.2-0.2c0,0,0,0,0,0h-3.1c0.2-0.5,0.5-0.9,1-1.1c0.4-0.3,1-0.4,1.5-0.4c0.1,0,0.1,0,0.2,0c0.1,0,0.1,0,0.2,0
		c0.1,0,0.1,0,0.2,0l0.1,0l0.1,0l0.1,0l0,0c0.1,0,0.1,0,0.2,0c0,0,0.1-0.1,0.1-0.1l0.3-1c0-0.1,0-0.1,0-0.2c0,0-0.1-0.1-0.1-0.1
		c-0.4-0.1-0.8-0.2-1.3-0.2c-0.9,0-1.9,0.3-2.6,0.8c-0.8,0.5-1.3,1.3-1.6,2.2h-0.6c-0.1,0-0.2,0.1-0.2,0.2c0,0,0,0,0,0c0,0,0,0,0,0
		v0.7c0,0.1,0.1,0.2,0.2,0.2c0,0,0,0,0,0h0.5c0,0.2,0,0.4,0,0.7h-0.4c-0.1,0-0.2,0.1-0.2,0.2v0.7c0,0.1,0.1,0.2,0.2,0.2h0.6
		c0.2,0.9,0.8,1.7,1.6,2.3c0.8,0.6,1.7,0.9,2.7,0.9c0.1,0,0.2,0,0.3,0c0.1,0,0.2,0,0.2,0c0.1,0,0.1,0,0.2,0s0.1,0,0.2,0l0.2,0
		c0.1,0,0.1,0,0.1,0s0.1,0,0.1,0c0,0,0,0,0.1,0l0,0c0,0,0.1,0,0.1-0.1C977.7,1484.4,977.8,1484.3,977.7,1484.3z"/>
	<path id="Tracé_4095" class="st0" d="M977.3,1486c-0.7-0.1-1.5-0.2-2.2-0.5c1.1,4.9-2.1,9.8-7,10.9c-4.9,1.1-9.8-2.1-10.9-7
		s2.1-9.8,7-10.9c2.2-0.5,4.4-0.1,6.3,0.9v-2.2c-5.7-2.4-12.2,0.2-14.6,5.9s0.2,12.2,5.9,14.6c5.7,2.4,12.2-0.2,14.6-5.9
		C977.3,1489.9,977.5,1487.9,977.3,1486L977.3,1486z"/>
</g>
</svg>
