<?xml version="1.0" encoding="utf-8"?>
<!-- Generator: Adobe Illustrator 23.0.1, SVG Export Plug-In . SVG Version: 6.00 Build 0)  -->
<svg version="1.1" id="Calque_1" xmlns="http://www.w3.org/2000/svg" xmlns:xlink="http://www.w3.org/1999/xlink" x="0px" y="0px"
	 viewBox="0 0 3.9 129.4" style="enable-background:new 0 0 3.9 129.4;" xml:space="preserve">
<style type="text/css">
	.st0{fill:#BAC3D2;}
</style>
<g id="Tracé_4197">
	<path class="st0" d="M1,128c0-0.6,0.4-1,1-1l0,0c0.5,0,1,0.4,1,1l0,0c0,0.5-0.5,1-1,1l0,0C1.4,129,1,128.5,1,128z M1,122
		c0-0.6,0.4-1,1-1l0,0c0.5,0,1,0.4,1,1l0,0c0,0.5-0.5,1-1,1l0,0C1.4,123,1,122.5,1,122z M1,116c0-0.6,0.4-1,1-1l0,0c0.5,0,1,0.4,1,1
		l0,0c0,0.5-0.5,1-1,1l0,0C1.4,117,1,116.5,1,116z M1,110c0-0.6,0.4-1,1-1l0,0c0.5,0,1,0.4,1,1l0,0c0,0.5-0.5,1-1,1l0,0
		C1.4,111,1,110.5,1,110z M1,104c0-0.6,0.4-1,1-1l0,0c0.5,0,1,0.4,1,1l0,0c0,0.5-0.5,1-1,1l0,0C1.4,105,1,104.5,1,104z M1,98
		c0-0.6,0.4-1,1-1l0,0c0.5,0,1,0.4,1,1l0,0c0,0.5-0.5,1-1,1l0,0C1.4,99,1,98.5,1,98z M1,92c0-0.6,0.4-1,1-1l0,0c0.5,0,1,0.4,1,1l0,0
		c0,0.5-0.5,1-1,1l0,0C1.4,93,1,92.5,1,92z M1,86c0-0.6,0.4-1,1-1l0,0c0.5,0,1,0.4,1,1l0,0c0,0.5-0.5,1-1,1l0,0C1.4,87,1,86.5,1,86z
		 M1,80c0-0.6,0.4-1,1-1l0,0c0.5,0,1,0.4,1,1l0,0c0,0.5-0.5,1-1,1l0,0C1.4,81,1,80.5,1,80z M1,74c0-0.6,0.4-1,1-1l0,0
		c0.5,0,1,0.4,1,1l0,0c0,0.5-0.5,1-1,1l0,0C1.4,75,1,74.5,1,74z M1,68c0-0.6,0.4-1,1-1l0,0c0.5,0,1,0.4,1,1l0,0c0,0.5-0.5,1-1,1l0,0
		C1.4,69,1,68.5,1,68z M1,62c0-0.6,0.4-1,1-1l0,0c0.5,0,1,0.4,1,1l0,0c0,0.5-0.5,1-1,1l0,0C1.4,63,1,62.5,1,62z M1,56
		c0-0.6,0.4-1,1-1l0,0c0.5,0,1,0.4,1,1l0,0c0,0.5-0.5,1-1,1l0,0C1.4,57,1,56.5,1,56z M1,50c0-0.6,0.4-1,1-1l0,0c0.5,0,1,0.4,1,1l0,0
		c0,0.5-0.5,1-1,1l0,0C1.4,51,1,50.5,1,50z M1,44c0-0.6,0.4-1,1-1l0,0c0.5,0,1,0.4,1,1l0,0c0,0.5-0.5,1-1,1l0,0C1.4,45,1,44.5,1,44z
		 M1,38c0-0.6,0.4-1,1-1l0,0c0.5,0,1,0.4,1,1l0,0c0,0.5-0.5,1-1,1l0,0C1.4,39,1,38.5,1,38z M1,32c0-0.6,0.4-1,1-1l0,0
		c0.5,0,1,0.4,1,1l0,0c0,0.5-0.5,1-1,1l0,0C1.4,33,1,32.5,1,32z M1,26c0-0.6,0.4-1,1-1l0,0c0.5,0,1,0.4,1,1l0,0c0,0.5-0.5,1-1,1l0,0
		C1.4,27,1,26.5,1,26z M1,20c0-0.6,0.4-1,1-1l0,0c0.5,0,1,0.4,1,1l0,0c0,0.5-0.5,1-1,1l0,0C1.4,21,1,20.5,1,20z M1,14
		c0-0.6,0.4-1,1-1l0,0c0.5,0,1,0.4,1,1l0,0c0,0.5-0.5,1-1,1l0,0C1.4,15,1,14.5,1,14z M1,8c0-0.6,0.4-1,1-1l0,0c0.5,0,1,0.4,1,1l0,0
		c0,0.5-0.5,1-1,1l0,0C1.4,9,1,8.5,1,8z M1,2c0-0.6,0.4-1,1-1l0,0c0.5,0,1,0.4,1,1l0,0c0,0.5-0.5,1-1,1l0,0C1.4,3,1,2.5,1,2z"/>
</g>
</svg>
