<?xml version="1.0" encoding="utf-8"?>
<!-- Generator: Adobe Illustrator 23.0.1, SVG Export Plug-In . SVG Version: 6.00 Build 0)  -->
<svg version="1.1" id="Calque_1" xmlns="http://www.w3.org/2000/svg" xmlns:xlink="http://www.w3.org/1999/xlink" x="0px" y="0px"
	 viewBox="0 0 263.9 61.4" style="enable-background:new 0 0 263.9 61.4;" xml:space="preserve">
<style type="text/css">
	.st0{fill:#565656;}
	.st1{font-family:'Geometos';}
	.st2{font-size:31px;}
	.st3{font-size:11px;}
	.st4{fill:#81D742;}
	.st5{font-size:14px;}
	.st6{fill:#9E9E9E;}
</style>
<g id="Groupe_5877" transform="translate(-163.162 -243.049)">
	<text transform="matrix(1 0 0 1 212.6671 285.6332)" class="st0 st1 st2">casseurs</text>
	<text transform="matrix(1 0 0 1 249.3821 255.7352)" class="st0 st1 st3">LES</text>
	<text transform="matrix(1 0 0 1 389.1252 286.8203)" class="st4 st1 st5">.COM</text>
	<g id="Groupe_5874" transform="translate(225.762 246.501)">
		<path id="Tracé_4177" class="st4" d="M13.3,11.2l5.7-0.3l-0.3-5.2C13.9,2.2,8,0.4,2.1,0.4l0,0l3.8,4.1L2.1,8
			C6.1,8,9.9,9.1,13.3,11.2z"/>
	</g>
	<path id="Tracé_4178" class="st4" d="M209.5,293.2l4.8-1.3c-9-7.5-10.2-20.8-2.7-29.8c3.3-3.9,7.8-6.5,12.8-7.3l4.2-3.9L225,247
		c-0.7,0.1-1.4,0.2-2.1,0.3c0-0.1,0.1-0.2,0-0.3l-0.8-3.1c-0.1-0.3-0.4-0.5-0.7-0.4c0,0,0,0,0,0l-3.8,1c-0.3,0.1-0.5,0.4-0.4,0.7
		c0,0,0,0,0,0l0.8,3.1c0,0.1,0.1,0.2,0.2,0.3c-0.6,0.2-1.3,0.5-1.9,0.8c0,0,0-0.1,0-0.1l-2.9-4.6c-0.3-0.4-0.8-0.5-1.2-0.3l-5.7,3.5
		c-0.4,0.3-0.5,0.8-0.3,1.2l2.9,4.6c0,0,0,0,0.1,0.1c-0.5,0.5-1,0.9-1.5,1.4c0-0.1-0.1-0.2-0.2-0.3l-2.5-2c-0.3-0.2-0.6-0.2-0.8,0.1
		c0,0,0,0,0,0l-2.5,3c-0.2,0.3-0.2,0.6,0.1,0.8l2.5,2c0.1,0,0.1,0.1,0.2,0.1c-7.9,10.9-7.1,25.9,1.9,35.9l0.2,0.1
		c1.4,1.5,2.9,2.9,4.6,4.1L209.5,293.2z"/>
	<g id="Groupe_5875" transform="translate(210.081 290.334)">
		<path id="Tracé_4179" class="st4" d="M32.7,5.7l0-5.2l-0.1-0.1c-7,6.9-17.9,8.1-26.2,2.8L2.1,4.4l1.7,6c1,0.5,1.9,1,3,1.5
			l0.1,0.1c3.5,1.4,7.2,2.2,10.9,2.2h0.1l0,0c7.5,0,14.8-3,20.1-8.3l-0.1-0.1L32.7,5.7z"/>
	</g>
	<g id="Groupe_5876" transform="translate(163.162 266.432)">
		<path id="Tracé_4180" class="st6" d="M34.5,15.8L12.6,17l22.6,1.6C34.9,17.7,34.7,16.7,34.5,15.8z"/>
		<path id="Tracé_4181" class="st6" d="M33.7,9c0-0.4,0-0.9,0-1.3L2.1,8.9l31.7,2.2C33.7,10.4,33.7,9.7,33.7,9z"/>
		<path id="Tracé_4182" class="st6" d="M34.8,0.4L11.3,1.3l22.9,1.6C34.4,2,34.6,1.2,34.8,0.4z"/>
	</g>
</g>
</svg>
