<?xml version="1.0" encoding="utf-8"?>
<!-- Generator: Adobe Illustrator 23.0.1, SVG Export Plug-In . SVG Version: 6.00 Build 0)  -->
<svg version="1.1" id="Calque_1" xmlns="http://www.w3.org/2000/svg" xmlns:xlink="http://www.w3.org/1999/xlink" x="0px" y="0px"
	 viewBox="0 0 267.9 78.4" style="enable-background:new 0 0 267.9 78.4;" xml:space="preserve">
<style type="text/css">
	.st0{fill:#FFFFFF;}
	.st1{fill:#565656;}
	.st2{font-family:'Geometos';}
	.st3{font-size:31px;}
	.st4{font-size:11px;}
	.st5{fill:#81D742;}
	.st6{font-size:14px;}
	.st7{fill:#9E9E9E;}
</style>
<g id="Groupe_6537">
	<circle id="Ellipse_145" class="st0" cx="66.1" cy="39.4" r="39"/>
	<rect id="Rectangle_699" class="st0" width="268" height="56.4"/>
</g>
<g id="Groupe_5877" transform="translate(345.838 -219.049)">
	<text transform="matrix(1 0 0 1 -293.3329 267.6332)" class="st1 st2 st3">casseurs</text>
	<text transform="matrix(1 0 0 1 -256.6179 237.7352)" class="st1 st2 st4">LES</text>
	<text transform="matrix(1 0 0 1 -116.8749 268.8203)" class="st5 st2 st6">.COM</text>
	<g id="Groupe_5874" transform="translate(225.762 246.501)">
		<path id="Tracé_4177" class="st5" d="M-492.7-6.8l5.7-0.3l-0.3-5.2c-4.9-3.5-10.7-5.3-16.7-5.3l0,0l3.8,4.1l-3.8,3.5
			C-499.9-10-496.1-8.9-492.7-6.8z"/>
	</g>
	<path id="Tracé_4178" class="st5" d="M-296.5,275.2l4.8-1.3c-9-7.5-10.2-20.8-2.7-29.8c3.3-3.9,7.8-6.5,12.8-7.3l4.2-3.9l-3.6-3.9
		c-0.7,0.1-1.4,0.2-2.1,0.3c0-0.1,0.1-0.2,0-0.3l-0.8-3.1c-0.1-0.3-0.4-0.5-0.7-0.4c0,0,0,0,0,0l-3.8,1c-0.3,0.1-0.5,0.4-0.4,0.7
		c0,0,0,0,0,0l0.8,3.1c0,0.1,0.1,0.2,0.2,0.3c-0.6,0.2-1.3,0.5-1.9,0.8c0,0,0-0.1,0-0.1l-2.9-4.6c-0.3-0.4-0.8-0.5-1.2-0.3l-5.7,3.5
		c-0.4,0.3-0.5,0.8-0.3,1.2l2.9,4.6c0,0,0,0,0.1,0.1c-0.5,0.5-1,0.9-1.5,1.4c0-0.1-0.1-0.2-0.2-0.3l-2.5-2c-0.3-0.2-0.6-0.2-0.8,0.1
		c0,0,0,0,0,0l-2.5,3c-0.2,0.3-0.2,0.6,0.1,0.8l2.5,2c0.1,0,0.1,0.1,0.2,0.1c-7.9,10.9-7.1,25.9,1.9,35.9l0.2,0.1
		c1.4,1.5,2.9,2.9,4.6,4.1L-296.5,275.2z"/>
	<g id="Groupe_5875" transform="translate(210.081 290.334)">
		<path id="Tracé_4179" class="st5" d="M-473.3-12.3l0-5.2l-0.1-0.1c-7,6.9-17.9,8.1-26.2,2.8l-4.3,1.2l1.7,6c1,0.5,1.9,1,3,1.5
			l0.1,0.1c3.5,1.4,7.2,2.2,10.9,2.2h0.1l0,0c7.5,0,14.8-3,20.1-8.3l-0.1-0.1L-473.3-12.3z"/>
	</g>
	<g id="Groupe_5876" transform="translate(163.162 266.432)">
		<path id="Tracé_4180" class="st7" d="M-471.5-2.2L-493.4-1l22.6,1.6C-471.1-0.3-471.3-1.3-471.5-2.2z"/>
		<path id="Tracé_4181" class="st7" d="M-472.3-9c0-0.4,0-0.9,0-1.3l-31.6,1.2l31.7,2.2C-472.3-7.6-472.3-8.3-472.3-9z"/>
		<path id="Tracé_4182" class="st7" d="M-471.2-17.6l-23.5,0.9l22.9,1.6C-471.6-16-471.4-16.8-471.2-17.6z"/>
	</g>
</g>
</svg>
