<?xml version="1.0" encoding="utf-8"?>
<!-- Generator: Adobe Illustrator 23.0.1, SVG Export Plug-In . SVG Version: 6.00 Build 0)  -->
<svg version="1.1" id="Calque_1" xmlns="http://www.w3.org/2000/svg" xmlns:xlink="http://www.w3.org/1999/xlink" x="0px" y="0px"
	 viewBox="0 0 16.9 12.4" style="enable-background:new 0 0 16.9 12.4;" xml:space="preserve">
<style type="text/css">
	.st0{fill:#252D3A;}
</style>
<g id="Groupe_5214" transform="translate(2.791 5.493)">
	<path id="Tracé_4069" class="st0" d="M10.2,3.7c-0.1,0-0.1,0-0.2-0.1l-3-2.8C7,0.7,7,0.5,7.1,0.4c0.1-0.1,0.3-0.1,0.4,0l3,2.8
		c0.1,0.1,0.1,0.3,0,0.4C10.4,3.6,10.3,3.7,10.2,3.7L10.2,3.7z"/>
	<path id="Tracé_4070" class="st0" d="M0.3,3.7c-0.1,0-0.1,0-0.2-0.1C0,3.5,0,3.3,0.1,3.2l3-2.8c0.1-0.1,0.3-0.1,0.4,0
		c0.1,0.1,0.1,0.3,0,0.4l0,0l-3,2.8C0.4,3.6,0.4,3.7,0.3,3.7z"/>
</g>
<path id="Tracé_4071" class="st0" d="M14.8,11.8H1.3c-0.7,0-1.3-0.6-1.3-1.3V1.7c0-0.7,0.6-1.3,1.3-1.3h13.4c0.7,0,1.3,0.6,1.3,1.3
	v8.8C16.1,11.2,15.5,11.8,14.8,11.8C14.8,11.8,14.8,11.8,14.8,11.8z M1.3,0.9c-0.4,0-0.8,0.3-0.8,0.8v8.8c0,0.4,0.3,0.8,0.8,0.8
	h13.4c0.4,0,0.8-0.3,0.8-0.8V1.7c0-0.4-0.3-0.8-0.8-0.8L1.3,0.9z"/>
<path id="Tracé_4072" class="st0" d="M8.1,7.4C7.7,7.4,7.4,7.2,7.1,7L0.5,1.2C0.4,1.1,0.4,1,0.4,0.9c0.1-0.1,0.3-0.1,0.4,0
	c0,0,0,0,0,0l6.6,5.8c0.4,0.3,0.9,0.3,1.2,0l6.6-5.8c0.1-0.1,0.3-0.1,0.4,0c0.1,0.1,0.1,0.3,0,0.4L9,7C8.8,7.2,8.4,7.4,8.1,7.4z"/>
</svg>
