<?xml version="1.0" encoding="utf-8"?>
<!-- Generator: Adobe Illustrator 23.0.1, SVG Export Plug-In . SVG Version: 6.00 Build 0)  -->
<svg version="1.1" id="Calque_1" xmlns="http://www.w3.org/2000/svg" xmlns:xlink="http://www.w3.org/1999/xlink" x="0px" y="0px"
	 viewBox="0 0 21.9 22.4" style="enable-background:new 0 0 21.9 22.4;" xml:space="preserve">
<style type="text/css">
	.st0{fill:#BAC3D2;}
</style>
<g id="Groupe_5081">
	<path id="Tracé_4016" class="st0" d="M18.2,14.5c-1.1-1.1-2.5-2-4-2.5c2.8-1.9,3.5-5.7,1.6-8.5S10-0.1,7.2,1.8s-3.5,5.7-1.6,8.5
		c0.4,0.6,1,1.2,1.6,1.6C2.9,13.4,0.1,17.5,0.1,22h1.7c0-5,4-9,9-9c4.9,0,9,4,9,9h1.7C21.3,19.2,20.2,16.5,18.2,14.5z M10.7,11.4
		c-2.5,0-4.5-2-4.5-4.5c0-2.5,2-4.5,4.5-4.5c2.5,0,4.5,2,4.5,4.5C15.2,9.4,13.2,11.4,10.7,11.4z"/>
</g>
</svg>
