<?xml version="1.0" encoding="utf-8"?>
<!-- Generator: Adobe Illustrator 23.0.1, SVG Export Plug-In . SVG Version: 6.00 Build 0)  -->
<svg version="1.1" id="Calque_1" xmlns="http://www.w3.org/2000/svg" xmlns:xlink="http://www.w3.org/1999/xlink" x="0px" y="0px"
	 viewBox="0 0 44.9 31.4" style="enable-background:new 0 0 44.9 31.4;" xml:space="preserve">
<style type="text/css">
	.st0{fill:#252D3A;}
</style>
<g id="Groupe_5108" transform="translate(-353 -75.771)">
	<g id="Groupe_5013" transform="translate(353 83.662)">
		<g id="Groupe_5012">
			<g id="Tracé_3968">
				<path id="Tracé_4191" class="st0" d="M9.4,21.5c-1.8,0-3.3-1.4-3.3-3.2S7.5,15,9.3,15c1.8,0,3.3,1.4,3.3,3.2c0,0,0,0,0,0l0,0
					C12.6,20,11.2,21.4,9.4,21.5z M34.3,21.5c-1.8,0-3.3-1.4-3.3-3.2c0-1.8,1.4-3.3,3.2-3.3c1.8,0,3.3,1.4,3.3,3.2c0,0,0,0,0,0l0,0
					C37.5,20,36,21.4,34.3,21.5z M14.2,1.2l-4.5,6L2.9,9C1.2,9.5,0,11.1,0,12.9v2.6c0,2.2,1.7,4,3.9,4h0.6c0.7,2.7,3.4,4.3,6.1,3.6
					c1.8-0.4,3.2-1.9,3.6-3.6h15.2c0.7,2.7,3.4,4.3,6.1,3.6c1.8-0.4,3.2-1.8,3.6-3.6h1.1c2.2,0,3.9-1.8,3.9-4v-3
					c0-1.6-0.9-3-2.3-3.6l-3.5-1.6l-3.1-5c-0.5-0.8-1.2-1.4-2-1.8l-0.1,2.1c0.2,0.2,0.4,0.5,0.5,0.7l3.3,5.3
					c0.1,0.2,0.2,0.3,0.4,0.3l3.8,1.7c0.8,0.4,1.2,1.1,1.2,2v3h0c0,1.2-0.9,2.2-2.1,2.2h-1c-0.3-2.8-2.7-4.8-5.5-4.5
					c-2.4,0.2-4.3,2.1-4.5,4.5H14.4c-0.3-2.8-2.7-4.8-5.5-4.5c-2.4,0.2-4.3,2.1-4.5,4.5H3.9c-1.2,0-2.1-1-2.1-2.2v-2.6
					c0-1,0.6-1.8,1.6-2.1l7-1.9c0.2-0.1,0.4-0.2,0.5-0.3l3.6-4.8"/>
			</g>
		</g>
	</g>
	<g id="Groupe_5107" transform="translate(368.149 75.771)">
		<g id="Ellipse_111">
			<path id="Tracé_4192" class="st0" d="M8.7,17.6c-4.7,0-8.6-3.9-8.6-8.6s3.9-8.6,8.6-8.6c4.7,0,8.6,3.9,8.6,8.6
				C17.3,13.7,13.4,17.6,8.7,17.6z M8.7,1.7c-4,0-7.3,3.3-7.3,7.3s3.3,7.3,7.3,7.3S16,13,16,9v0C16,4.9,12.7,1.7,8.7,1.7z"/>
		</g>
		<g id="Groupe_4993" transform="translate(2.604 4.995)">
			<g id="Groupe_4992">
				<g id="Tracé_3958">
					<path id="Tracé_4193" class="st0" d="M12,3.2c-0.1-0.1-0.3-0.2-0.4-0.1c-0.1,0.1-0.2,0.3-0.1,0.4c0.1,0.1,0.1,0.3,0,0.4
						c-0.7,1-1.7,1.7-2.8,2.1c1.2-1.3,1.2-3.4,0-4.7c0.6,0.3,1.2,0.6,1.8,1c0.1,0.1,0.1,0.1,0.2,0.2c0.1,0.1,0.3,0.1,0.4,0
						s0.1-0.3,0-0.4l0,0l0,0C11,2.2,10.9,2.1,10.8,2C7.7-0.6,3-0.1,0.4,3.1c0,0-0.1,0.1-0.1,0.1C0,3.6,0,4.1,0.3,4.4
						c2.5,3.2,7.2,3.8,10.4,1.3c0.5-0.4,0.9-0.8,1.3-1.3C12.3,4.1,12.3,3.6,12,3.2z M0.8,4.1c-0.1-0.1-0.1-0.3,0-0.4
						c0.7-1,1.7-1.7,2.8-2.1c-1.2,1.3-1.2,3.4,0,4.7C2.5,5.7,1.5,5,0.8,4.1L0.8,4.1z M6.1,6.7L6.1,6.7c-1.6,0-2.9-1.3-2.9-2.8
						S4.5,1,6.1,1l0,0h0C7.7,1,9,2.3,9,3.8S7.7,6.7,6.1,6.7L6.1,6.7L6.1,6.7z"/>
				</g>
			</g>
		</g>
		<g id="Groupe_4995" transform="translate(7.359 7.15)">
			<g id="Groupe_4994">
				<g id="Tracé_3959">
					<path id="Tracé_4194" class="st0" d="M1.4,0.4c-0.7,0-1.3,0.6-1.3,1.3S0.6,3,1.4,3c0.7,0,1.3-0.6,1.3-1.3l0,0
						C2.7,1,2.1,0.4,1.4,0.4z M1.4,2.4C1,2.4,0.7,2.1,0.7,1.7C0.7,1.3,1,1,1.4,1c0.4,0,0.7,0.3,0.7,0.7C2.1,2.1,1.8,2.4,1.4,2.4
						C1.4,2.4,1.4,2.4,1.4,2.4z"/>
				</g>
			</g>
		</g>
	</g>
</g>
</svg>
