<?xml version="1.0" encoding="utf-8"?>
<!-- Generator: Adobe Illustrator 23.0.1, SVG Export Plug-In . SVG Version: 6.00 Build 0)  -->
<svg version="1.1" id="Calque_1" xmlns="http://www.w3.org/2000/svg" xmlns:xlink="http://www.w3.org/1999/xlink" x="0px" y="0px"
	 viewBox="0 0 27.9 36.4" style="enable-background:new 0 0 27.9 36.4;" xml:space="preserve">
<style type="text/css">
	.st0{fill:#252D3A;}
</style>
<g id="Groupe_6205" transform="translate(-64.016)">
	<g id="Groupe_6189" transform="translate(74.528 10.514)">
		<g id="Groupe_6188">
			<path id="Tracé_4422" class="st0" d="M16.4,15.6l-15-15C1,0.3,0.6,0.3,0.3,0.6C0.1,0.7,0.1,0.9,0.1,1.1v20.8
				c0,0.4,0.3,0.8,0.8,0.8c0.2,0,0.3-0.1,0.5-0.2l3.8-3l3.3,6c0.2,0.4,0.6,0.5,1,0.3l4.5-2.3c0.2-0.1,0.3-0.3,0.4-0.4
				c0.1-0.2,0-0.4-0.1-0.6l-3.1-5.6h4.7c0.4,0,0.8-0.3,0.8-0.8C16.6,15.9,16.5,15.7,16.4,15.6L16.4,15.6z M9.8,15.4
				c-0.4,0-0.8,0.3-0.8,0.8c0,0.1,0,0.3,0.1,0.4l3.4,6.1l-3.2,1.6L6,18c-0.1-0.2-0.3-0.3-0.5-0.4c0,0-0.1,0-0.1,0
				c-0.2,0-0.3,0.1-0.5,0.2l-3.3,2.6V2.9L14,15.4H9.8z"/>
		</g>
	</g>
	<g id="Groupe_6191" transform="translate(74.528)">
		<g id="Groupe_6190">
			<path id="Tracé_4423" class="st0" d="M0.8,0.4c-0.4,0-0.8,0.3-0.8,0.8c0,0,0,0,0,0v4.5C0,6,0.4,6.4,0.8,6.4
				c0.4,0,0.8-0.3,0.8-0.7c0,0,0-0.1,0-0.1V1.1C1.6,0.7,1.2,0.4,0.8,0.4z"/>
		</g>
	</g>
	<g id="Groupe_6193" transform="translate(64.016 10.512)">
		<g id="Groupe_6192" transform="translate(0)">
			<path id="Tracé_4424" class="st0" d="M5.3,0.4H0.8C0.4,0.3,0,0.7,0,1.1c0,0.4,0.3,0.8,0.7,0.8c0,0,0.1,0,0.1,0h4.5
				c0.4,0,0.8-0.3,0.8-0.7C6.1,0.7,5.8,0.4,5.3,0.4C5.4,0.4,5.3,0.4,5.3,0.4z"/>
		</g>
	</g>
	<g id="Groupe_6195" transform="translate(80.534 10.512)">
		<g id="Groupe_6194" transform="translate(0)">
			<path id="Tracé_4425" class="st0" d="M5.3,0.4H0.8c-0.4,0-0.7,0.4-0.7,0.8c0,0.4,0.3,0.7,0.7,0.7h4.5C5.7,1.8,6,1.5,6,1.1
				C6,0.7,5.7,0.4,5.3,0.4z"/>
		</g>
	</g>
	<g id="Groupe_6197" transform="translate(67.094 3.08)">
		<g id="Groupe_6196" transform="translate(0)">
			<path id="Tracé_4426" class="st0" d="M4.5,3.8L1.3,0.6C1,0.3,0.6,0.3,0.3,0.6C0,0.9,0,1.3,0.3,1.6c0,0,0,0,0,0l3.2,3.2
				C3.6,5,3.8,5,4,5C4.2,5,4.4,5,4.5,4.8C4.8,4.5,4.8,4.1,4.5,3.8z"/>
		</g>
	</g>
	<g id="Groupe_6199" transform="translate(67.094 14.761)">
		<g id="Groupe_6198" transform="translate(0)">
			<path id="Tracé_4427" class="st0" d="M4.5,0.6c-0.3-0.3-0.8-0.3-1.1,0L0.3,3.8C0,4.1,0,4.5,0.3,4.8c0.3,0.3,0.8,0.3,1,0l3.2-3.2
				C4.8,1.4,4.8,0.9,4.5,0.6z"/>
		</g>
	</g>
	<g id="Groupe_6201" transform="translate(78.774 3.078)">
		<g id="Groupe_6200" transform="translate(0)">
			<path id="Tracé_4428" class="st0" d="M4.5,0.6c-0.3-0.3-0.8-0.3-1.1,0c0,0,0,0,0,0L0.3,3.8C0,4.1,0,4.5,0.3,4.8
				c0.3,0.3,0.8,0.3,1.1,0l3.2-3.2C4.8,1.4,4.8,0.9,4.5,0.6z"/>
		</g>
	</g>
</g>
</svg>
