<?xml version="1.0" encoding="utf-8"?>
<!-- Generator: Adobe Illustrator 23.0.1, SVG Export Plug-In . SVG Version: 6.00 Build 0)  -->
<svg version="1.1" id="Calque_1" xmlns="http://www.w3.org/2000/svg" xmlns:xlink="http://www.w3.org/1999/xlink" x="0px" y="0px"
	 viewBox="0 0 20.9 21.4" style="enable-background:new 0 0 20.9 21.4;" xml:space="preserve">
<style type="text/css">
	.st0{fill:#FFFFFF;}
</style>
<path id="Tracé_4199" class="st0" d="M20.4,16.7c0-0.5-0.2-1-0.6-1.4c0,0-0.1,0-0.1-0.1c-1.5-1.3-2.4-3.2-2.4-5.2V7.3
	c0-3.3-2.3-6.2-5.5-6.9c-0.4-0.1-0.8,0.2-0.9,0.6c-0.1,0.4,0.2,0.8,0.6,0.9l0,0c2.5,0.6,4.3,2.8,4.3,5.4v2.8c0,1.2,0.3,2.4,0.8,3.5
	c0,0,0,0.1,0,0.1c0.5,1.1,1.2,2,2.1,2.8c0,0,0,0,0,0c0,0,0.1,0.1,0.1,0.1c0,0.1-0.1,0.2-0.3,0.2H1.8c-0.1,0-0.2-0.1-0.3-0.2
	c0-0.1,0-0.1,0.1-0.1c0,0,0,0,0,0c1.9-1.6,3-3.9,3-6.4V7.4c0-2.6,1.8-4.8,4.3-5.4C9.3,1.8,9.6,1.4,9.5,1C9.4,0.6,9,0.3,8.6,0.4l0,0
	C5.4,1.2,3.1,4.1,3.1,7.4v2.8c0,0.9-0.2,1.9-0.6,2.8c0,0-0.1,0.1-0.1,0.1c-0.4,0.9-1,1.6-1.7,2.2c0,0-0.1,0-0.1,0.1
	c-0.4,0.3-0.6,0.8-0.6,1.4c0,0,0,0,0,0s0,0,0,0c0,1,0.8,1.8,1.8,1.8h4.7c0.4,2.1,2.4,3.4,4.5,3c1.5-0.3,2.7-1.5,3-3h4.7
	C19.6,18.6,20.4,17.8,20.4,16.7C20.4,16.8,20.4,16.8,20.4,16.7C20.4,16.7,20.4,16.7,20.4,16.7z M10.2,20.1c-1,0-1.8-0.6-2.2-1.5h4.3
	C12.1,19.5,11.2,20.1,10.2,20.1z"/>
</svg>
