<?xml version="1.0" encoding="utf-8"?>
<!-- Generator: Adobe Illustrator 23.0.1, SVG Export Plug-In . SVG Version: 6.00 Build 0)  -->
<svg version="1.1" id="Calque_1" xmlns="http://www.w3.org/2000/svg" xmlns:xlink="http://www.w3.org/1999/xlink" x="0px" y="0px"
	 viewBox="0 0 14.9 18.4" style="enable-background:new 0 0 14.9 18.4;" xml:space="preserve">
<style type="text/css">
	.st0{fill:#81D742;}
</style>
<g id="Groupe_4988">
	<g id="Groupe_4987">
		<path id="Tracé_3955" class="st0" d="M14.6,10.6V5.8c0-0.2-0.1-0.4-0.2-0.5L9.2,0.5C9,0.4,8.9,0.4,8.7,0.4h-8
			C0.3,0.4,0.1,0.7,0.1,1v13.2c0,0.4,0.3,0.6,0.6,0.7c0.3,0,0.6-0.3,0.7-0.6c0,0,0,0,0,0V1.7h6.6v4.9c0,0.4,0.3,0.6,0.6,0.6h4.6
			c0,0,0.1,0,0.1,0v9.4H1.3V14c0-0.4-0.3-0.6-0.6-0.7c-0.3,0-0.6,0.3-0.7,0.6c0,0,0,0,0,0v3.2c0,0.4,0.3,0.6,0.6,0.6h13.2
			c0.4,0,0.6-0.3,0.6-0.6L14.6,10.6L14.6,10.6z M9.2,2.3l3.9,3.6H9.2V2.3z"/>
	</g>
</g>
<g id="Groupe_4989" transform="translate(4.59 8.002)">
	<path id="Tracé_3957" class="st0" d="M4.8,6.6L4.6,5.8c0,0,0-0.1-0.1-0.1c0,0-0.1,0-0.1,0l0,0l-0.1,0l-0.1,0c0,0-0.1,0-0.1,0
		S4,5.8,4,5.8c0,0-0.1,0-0.2,0s-0.1,0-0.2,0c-0.8,0-1.5-0.5-1.8-1.2h1.8c0.1,0,0.1-0.1,0.1-0.1L4,4c0,0,0-0.1,0-0.1
		c0,0-0.1-0.1-0.1-0.1H1.7c0-0.2,0-0.3,0-0.5H4c0.1,0,0.1,0,0.1-0.1v0l0.1-0.5c0-0.1,0-0.2-0.1-0.2h0H1.9C2,2.2,2.3,1.9,2.6,1.7
		c0.3-0.2,0.7-0.3,1.1-0.3c0,0,0.1,0,0.1,0c0,0,0.1,0,0.1,0c0,0,0.1,0,0.1,0l0.1,0l0.1,0l0.1,0h0c0,0,0.1,0,0.1,0
		c0,0,0.1-0.1,0.1-0.1l0.2-0.7c0,0,0-0.1,0-0.1c0,0-0.1-0.1-0.1-0.1C4.3,0.4,4,0.3,3.7,0.4C3,0.3,2.3,0.6,1.8,1
		C1.3,1.3,0.9,1.9,0.7,2.5H0.2c-0.1,0-0.1,0.1-0.1,0.1c0,0,0,0,0,0c0,0,0,0,0,0v0.5c0,0.1,0.1,0.1,0.1,0.1c0,0,0,0,0,0h0.3
		c0,0.1,0,0.3,0,0.5H0.2C0.1,3.8,0.1,3.9,0.1,4v0.5c0,0.1,0.1,0.1,0.1,0.1h0.4c0.2,0.7,0.6,1.2,1.1,1.6C2.3,6.7,3,6.9,3.7,6.9
		c0.1,0,0.1,0,0.2,0c0.1,0,0.1,0,0.2,0l0.2,0c0.1,0,0.1,0,0.1,0l0.1,0c0,0,0.1,0,0.1,0s0.1,0,0.1,0c0,0,0,0,0,0h0c0,0,0.1,0,0.1-0.1
		C4.8,6.7,4.8,6.6,4.8,6.6z"/>
</g>
</svg>
