<?xml version="1.0" encoding="utf-8"?>
<!-- Generator: Adobe Illustrator 23.0.1, SVG Export Plug-In . SVG Version: 6.00 Build 0)  -->
<svg version="1.1" id="Calque_1" xmlns="http://www.w3.org/2000/svg" xmlns:xlink="http://www.w3.org/1999/xlink" x="0px" y="0px"
	 viewBox="0 0 18.9 19.4" style="enable-background:new 0 0 18.9 19.4;" xml:space="preserve">
<style type="text/css">
	.st0{fill:#F37050;}
</style>
<g id="Groupe_5440">
	<g id="Groupe_5439">
		<path id="Tracé_4109" class="st0" d="M9.4,0.4c-5.2,0-9.3,4.2-9.3,9.3S4.2,19,9.4,19s9.3-4.2,9.3-9.3C18.7,4.5,14.5,0.4,9.4,0.4
			C9.4,0.4,9.4,0.4,9.4,0.4z M9.4,17.6C5,17.6,1.5,14,1.5,9.7S5,1.8,9.4,1.8s7.9,3.5,7.9,7.9C17.3,14,13.7,17.6,9.4,17.6
			C9.4,17.6,9.4,17.6,9.4,17.6z"/>
	</g>
</g>
<g id="Groupe_5442" transform="translate(8.604 4.699)">
	<g id="Groupe_5441">
		<path id="Tracé_4110" class="st0" d="M0.8,0.4c-0.4,0-0.7,0.3-0.7,0.7c0,0,0,0,0,0v4.7c0,0.4,0.3,0.7,0.7,0.7
			c0.4,0,0.7-0.3,0.7-0.7c0,0,0,0,0,0V1.1C1.5,0.7,1.2,0.4,0.8,0.4z"/>
	</g>
</g>
<g id="Groupe_5444" transform="translate(8.349 11.745)">
	<g id="Groupe_5443">
		<circle id="Ellipse_116" class="st0" cx="1" cy="1.3" r="1"/>
	</g>
</g>
</svg>
