<?xml version="1.0" encoding="utf-8"?>
<!-- Generator: Adobe Illustrator 23.0.1, SVG Export Plug-In . SVG Version: 6.00 Build 0)  -->
<svg version="1.1" id="Calque_1" xmlns="http://www.w3.org/2000/svg" xmlns:xlink="http://www.w3.org/1999/xlink" x="0px" y="0px"
	 viewBox="0 0 10.9 13.4" style="enable-background:new 0 0 10.9 13.4;" xml:space="preserve">
<style type="text/css">
	.st0{fill:#252D3A;}
</style>
<path id="Tracé_4074" class="st0" d="M10.5,13.2c0.2,0,0.4-0.2,0.4-0.4v0V6.4c0-0.2-0.2-0.4-0.4-0.4l0,0H9V3.9c0-2-1.6-3.5-3.6-3.5
	C3.5,0.5,1.9,2,1.9,3.9V6H0.4C0.2,6,0.1,6.2,0.1,6.4v6.5c0,0.2,0.2,0.4,0.3,0.4L10.5,13.2z M2.6,3.9c0-1.6,1.3-2.8,2.8-2.8
	c1.6,0,2.8,1.3,2.8,2.8V6H2.6V3.9z M0.8,6.7h9.3v5.8H0.8V6.7z"/>
</svg>
