<?xml version="1.0" encoding="utf-8"?>
<!-- Generator: Adobe Illustrator 23.0.1, SVG Export Plug-In . SVG Version: 6.00 Build 0)  -->
<svg version="1.1" id="Calque_1" xmlns="http://www.w3.org/2000/svg" xmlns:xlink="http://www.w3.org/1999/xlink" x="0px" y="0px"
	 viewBox="0 0 20.9 21.4" style="enable-background:new 0 0 20.9 21.4;" xml:space="preserve">
<style type="text/css">
	.st0{fill:#F37050;}
</style>
<g id="Groupe_5115">
	<path id="Tracé_4028" class="st0" d="M21,10c0,0,0-0.1,0-0.1c0,0,0,0,0,0c0,0,0-0.1-0.1-0.1l0,0l-2.5-2.5V4.7c0,0,0,0,0,0
		c0,0,0-0.1,0-0.1c0,0,0,0,0,0c0,0,0-0.1-0.1-0.1l-3.9-3.9c0,0-0.1-0.1-0.1-0.1c0,0,0,0,0,0c0,0-0.1,0-0.1,0c0,0,0,0,0,0H3.1
		c-0.2,0-0.4,0.2-0.4,0.4v6.4L0.2,9.7l0,0c0,0-0.1,0.1-0.1,0.1c0,0,0,0,0,0c0,0,0,0.1,0,0.1c0,0,0,0,0,0v8.3c0,0.2,0.2,0.4,0.4,0.4
		h2.2v2.2c0,0.2,0.2,0.4,0.4,0.4H18c0.2,0,0.4-0.2,0.4-0.4v-2.2h2.2c0.2,0,0.4-0.2,0.4-0.4L21,10C21.1,10,21.1,10,21,10z M19.6,9.6
		h-1.1V8.4L19.6,9.6z M16.9,4.3h-2.4V1.9L16.9,4.3z M3.6,1.2h10.1v3.5c0,0.2,0.2,0.4,0.4,0.4h3.5v4.4h-14V1.2z M2.7,8.4v1.1H1.5
		L2.7,8.4z M17.6,20.5h-14v-1.8h14V20.5z M20.2,17.9H0.9v-7.4h19.3V17.9z"/>
	<path id="Tracé_4029" class="st0" d="M8,12.1c-0.1-0.1-0.3-0.2-0.5-0.3c-0.2,0-0.3-0.1-0.5-0.1H5.6V17h0.9v-2.1h0.6
		c0.2,0,0.4,0,0.5-0.1c0.2-0.1,0.3-0.2,0.5-0.3c0.1-0.1,0.3-0.3,0.3-0.5c0.1-0.2,0.1-0.5,0.1-0.7c0-0.3,0-0.5-0.1-0.7
		C8.3,12.3,8.2,12.2,8,12.1z M7.5,13.9c-0.1,0.1-0.3,0.2-0.5,0.2H6.5v-1.7H7c0.2,0,0.4,0.1,0.5,0.2c0.1,0.2,0.2,0.4,0.2,0.6
		C7.7,13.5,7.6,13.7,7.5,13.9L7.5,13.9z"/>
	<path id="Tracé_4030" class="st0" d="M13.5,17h0.9v-2.3h1.3V14h-1.4v-1.4h1.5v-0.8h-2.4V17z"/>
	<path id="Tracé_4031" class="st0" d="M10.6,11.7H9.3V17h1.3c0.6,0,1.2-0.2,1.5-0.7c0.4-0.6,0.6-1.3,0.5-1.9c0-0.7-0.1-1.4-0.5-1.9
		C11.8,11.9,11.2,11.7,10.6,11.7z M11.7,15.2c0,0.2-0.1,0.4-0.2,0.6c-0.1,0.1-0.2,0.3-0.4,0.3c-0.1,0.1-0.3,0.1-0.5,0.1h-0.4v-3.7
		h0.4c0.2,0,0.3,0,0.5,0.1c0.2,0.1,0.3,0.2,0.4,0.3c0.1,0.2,0.2,0.4,0.2,0.6c0.1,0.3,0.1,0.5,0.1,0.8C11.8,14.6,11.7,14.9,11.7,15.2
		z"/>
</g>
</svg>
