<?xml version="1.0" encoding="utf-8"?>
<!-- Generator: Adobe Illustrator 23.0.1, SVG Export Plug-In . SVG Version: 6.00 Build 0)  -->
<svg version="1.1" id="Calque_1" xmlns="http://www.w3.org/2000/svg" xmlns:xlink="http://www.w3.org/1999/xlink" x="0px" y="0px"
	 viewBox="0 0 12.9 12.4" style="enable-background:new 0 0 12.9 12.4;" xml:space="preserve">
<style type="text/css">
	.st0{fill:#252D3A;}
</style>
<g id="Groupe_5846" transform="translate(5.681 -5.681) rotate(45)">
	<path id="Tracé_3927" class="st0" d="M16.4,7.2l-4-0.1c-0.2-2.6-2.5-4.5-5.1-4.3C4.6,3,2.7,5.3,2.9,7.9c0.2,2.6,2.5,4.5,5.1,4.3
		c1.1-0.1,2.2-0.6,2.9-1.4c0.7-0.7,1.2-1.6,1.3-2.5l4.1,0.1c0.3,0,0.6-0.2,0.7-0.6C17.1,7.5,16.8,7.2,16.4,7.2
		C16.5,7.2,16.5,7.2,16.4,7.2L16.4,7.2z M5.2,5c1.4-1.4,3.6-1.4,5,0s1.4,3.6,0,5c-1.4,1.4-3.6,1.4-5,0l0,0C3.8,8.6,3.8,6.4,5.2,5z"
		/>
</g>
</svg>
