<?xml version="1.0" encoding="utf-8"?>
<!-- Generator: Adobe Illustrator 23.0.1, SVG Export Plug-In . SVG Version: 6.00 Build 0)  -->
<svg version="1.1" id="Calque_1" xmlns="http://www.w3.org/2000/svg" xmlns:xlink="http://www.w3.org/1999/xlink" x="0px" y="0px"
	 viewBox="0 0 8.9 9.4" style="enable-background:new 0 0 8.9 9.4;" xml:space="preserve">
<style type="text/css">
	.st0{fill:#FFFFFF;}
</style>
<g id="Groupe_5462" transform="translate(3.983 -3.983) rotate(45)">
	<path id="Tracé_3927" class="st0" d="M11.2,5.5L8.4,5.5c-0.2-1.8-1.8-3.2-3.6-3C3,2.6,1.6,4.2,1.8,6.1s1.8,3.2,3.6,3
		c0.8-0.1,1.5-0.4,2.1-1C7.9,7.7,8.2,7,8.4,6.4l2.9,0.1c0.2,0,0.4-0.2,0.5-0.4C11.7,5.8,11.5,5.6,11.2,5.5
		C11.3,5.5,11.2,5.5,11.2,5.5L11.2,5.5z M3.3,4c1-1,2.5-1,3.5,0s1,2.5,0,3.5s-2.5,1-3.5,0C2.4,6.6,2.4,5,3.3,4z"/>
</g>
</svg>
