<?xml version="1.0" encoding="utf-8"?>
<!-- Generator: Adobe Illustrator 23.0.1, SVG Export Plug-In . SVG Version: 6.00 Build 0)  -->
<svg version="1.1" id="Calque_1" xmlns="http://www.w3.org/2000/svg" xmlns:xlink="http://www.w3.org/1999/xlink" x="0px" y="0px"
	 viewBox="0 0 21.9 30.4" style="enable-background:new 0 0 21.9 30.4;" xml:space="preserve">
<style type="text/css">
	.st0{fill:#F37050;}
</style>
<g>
	<g id="Groupe_5800">
		<g id="Groupe_5799">
			<path id="Tracé_4165" class="st0" d="M20.6,3.3h-5.3v-2c0-0.5-0.4-1-1-1c0,0,0,0,0,0H7.3c-0.5,0-1,0.4-1,1v2H1c-0.5,0-1,0.4-1,1
				v3c0,0.5,0.4,1,1,1h0.3L2.2,29c0,0.5,0.4,0.9,1,0.9h15.3c0.5,0,0.9-0.4,1-0.9l0.9-20.8h0.3c0.5,0,1-0.4,1-1v-3
				C21.5,3.8,21.1,3.3,20.6,3.3z M8.2,2.3h5.1v1H8.2V2.3z M17.5,28H4.1L3.2,8.2h15.1L17.5,28z M19.6,6.3H2v-1h17.6L19.6,6.3z"/>
		</g>
	</g>
	<g id="Groupe_5802" transform="translate(5.901 10.823)">
		<g id="Groupe_5801">
			<path id="Tracé_4166" class="st0" d="M1,0.4c-0.5,0-1,0.4-1,1v11.9c0,0.5,0.4,1,1,1c0.5,0,1-0.4,1-1c0,0,0,0,0,0V1.3
				C2,0.8,1.6,0.4,1,0.4C1,0.4,1,0.4,1,0.4z"/>
		</g>
	</g>
	<g id="Groupe_5804" transform="translate(9.782 10.823)">
		<g id="Groupe_5803">
			<path id="Tracé_4167" class="st0" d="M1,0.4c-0.5,0-1,0.4-1,1v11.9c0,0.5,0.4,1,1,1c0.5,0,1-0.4,1-1c0,0,0,0,0,0V1.3
				C2,0.8,1.6,0.4,1,0.4C1,0.4,1,0.4,1,0.4z"/>
		</g>
	</g>
	<g id="Groupe_5806" transform="translate(13.663 10.823)">
		<g id="Groupe_5805">
			<path id="Tracé_4168" class="st0" d="M1,0.4c-0.5,0-1,0.4-1,1v11.9c0,0.5,0.4,1,1,1c0.5,0,1-0.4,1-1c0,0,0,0,0,0V1.3
				C2,0.8,1.6,0.4,1,0.4C1,0.4,1,0.4,1,0.4z"/>
		</g>
	</g>
</g>
</svg>
