<?xml version="1.0" encoding="utf-8"?>
<!-- Generator: Adobe Illustrator 23.0.1, SVG Export Plug-In . SVG Version: 6.00 Build 0)  -->
<svg version="1.1" id="Calque_1" xmlns="http://www.w3.org/2000/svg" xmlns:xlink="http://www.w3.org/1999/xlink" x="0px" y="0px"
	 viewBox="0 0 14.9 21.4" style="enable-background:new 0 0 14.9 21.4;" xml:space="preserve">
<style type="text/css">
	.st0{fill:#252D3A;}
</style>
<g id="Groupe_5800">
	<g id="Groupe_5799">
		<path id="Tracé_4165" class="st0" d="M14.5,2.4h-3.7V1c0-0.4-0.3-0.7-0.7-0.7h-5C4.7,0.4,4.4,0.7,4.4,1v1.4H0.7
			c-0.4,0-0.7,0.3-0.7,0.7c0,0,0,0,0,0v2.1c0,0.4,0.3,0.7,0.7,0.7l0,0h0.2l0.6,14.6c0,0.4,0.3,0.6,0.7,0.6H13c0.4,0,0.7-0.3,0.7-0.6
			l0.6-14.6h0.2c0.4,0,0.7-0.3,0.7-0.7c0,0,0,0,0,0V3.1C15.2,2.8,14.9,2.4,14.5,2.4C14.5,2.4,14.5,2.4,14.5,2.4z M5.8,1.7h3.6v0.7
			H5.8V1.7z M12.3,19.8H2.9L2.3,5.9h10.6L12.3,19.8z M13.8,4.5H1.4V3.8h12.4V4.5z"/>
	</g>
</g>
<g id="Groupe_5802" transform="translate(4.145 7.602)">
	<g id="Groupe_5801">
		<path id="Tracé_4166" class="st0" d="M0.7,0.4C0.4,0.4,0.1,0.7,0.1,1v8.4c0,0.4,0.3,0.7,0.7,0.7c0.4,0,0.7-0.3,0.7-0.7
			c0,0,0,0,0-0.1V1C1.4,0.7,1.1,0.4,0.7,0.4z"/>
	</g>
</g>
<g id="Groupe_5804" transform="translate(6.871 7.602)">
	<g id="Groupe_5803">
		<path id="Tracé_4167" class="st0" d="M0.7,0.4C0.4,0.4,0.1,0.7,0.1,1v8.4c0,0.4,0.3,0.7,0.7,0.7c0.4,0,0.7-0.3,0.7-0.7
			c0,0,0,0,0-0.1V1C1.4,0.7,1.1,0.4,0.7,0.4z"/>
	</g>
</g>
<g id="Groupe_5806" transform="translate(9.597 7.602)">
	<g id="Groupe_5805">
		<path id="Tracé_4168" class="st0" d="M0.7,0.4C0.4,0.4,0.1,0.7,0.1,1l0,0v8.4c0,0.4,0.3,0.7,0.7,0.7s0.7-0.3,0.7-0.7
			c0,0,0,0,0-0.1V1C1.4,0.7,1.1,0.4,0.7,0.4z"/>
	</g>
</g>
</svg>
