<?xml version="1.0" encoding="utf-8"?>
<!-- Generator: Adobe Illustrator 23.0.1, SVG Export Plug-In . SVG Version: 6.00 Build 0)  -->
<svg version="1.1" id="Calque_1" xmlns="http://www.w3.org/2000/svg" xmlns:xlink="http://www.w3.org/1999/xlink" x="0px" y="0px"
	 viewBox="0 0 28.9 22.4" style="enable-background:new 0 0 28.9 22.4;" xml:space="preserve">
<style type="text/css">
	.st0{fill:#BAC3D2;}
</style>
<g id="Groupe_4973">
	<path id="Tracé_3946" class="st0" d="M28.2,20.8h-1.3V2c0-0.9-0.7-1.6-1.6-1.6h-2.9c-0.9,0-1.6,0.7-1.6,1.6v18.9h-3.3V10.5
		c0-0.9-0.7-1.6-1.6-1.6H13c-0.9,0-1.6,0.7-1.6,1.6v10.3H8.1v-5.3c0-0.9-0.7-1.6-1.6-1.6H3.6c-0.9,0-1.6,0.7-1.6,1.6v5.3H0.6
		c-0.3,0-0.6,0.3-0.6,0.6S0.3,22,0.6,22h27.6c0.3,0,0.6-0.3,0.6-0.6S28.5,20.8,28.2,20.8L28.2,20.8z M6.9,20.8H3.2v-5.3
		c0-0.2,0.2-0.4,0.4-0.4h2.9c0.2,0,0.4,0.2,0.4,0.4C6.9,15.5,6.9,20.8,6.9,20.8z M16.3,20.8h-3.7V10.5c0-0.2,0.2-0.4,0.4-0.4h2.9
		c0.2,0,0.4,0.2,0.4,0.4L16.3,20.8z M25.7,20.8H22V2c0-0.2,0.2-0.4,0.4-0.4h2.9c0.2,0,0.4,0.2,0.4,0.4L25.7,20.8L25.7,20.8z"/>
</g>
</svg>
