<?xml version="1.0" encoding="utf-8"?>
<!-- Generator: Adobe Illustrator 23.0.1, SVG Export Plug-In . SVG Version: 6.00 Build 0)  -->
<svg version="1.1" id="Calque_1" xmlns="http://www.w3.org/2000/svg" xmlns:xlink="http://www.w3.org/1999/xlink" x="0px" y="0px"
	 viewBox="0 0 46.9 31.4" style="enable-background:new 0 0 46.9 31.4;" xml:space="preserve">
<style type="text/css">
	.st0{fill:#252D3A;}
</style>
<g id="Groupe_5885" transform="translate(-505.216 -162)">
	<path id="Tracé_4195" class="st0" d="M549.1,177.6l-3.7-1.7l-3.3-5.2c-0.8-1.3-2.1-2.1-3.5-2.3c0,0.2,0,0.4,0,0.7
		c0,0.4,0,0.8-0.1,1.3c0.8,0.2,1.5,0.7,2,1.4l3.4,5.5c0.1,0.2,0.2,0.3,0.4,0.4l4,1.8c0.8,0.4,1.3,1.2,1.3,2v3.1h0
		c0,1.2-1,2.3-2.2,2.3h-1c-0.3-2.9-2.9-5-5.8-4.7c-2.5,0.3-4.4,2.2-4.7,4.7h-15.7c-0.3-2.9-2.9-5-5.8-4.7c-2.5,0.3-4.4,2.2-4.7,4.7
		h-0.5c-1.2,0-2.2-1-2.2-2.3v-2.7c0-1,0.7-1.9,1.6-2.2l7.4-2c0.2-0.1,0.4-0.2,0.5-0.3l4.4-5.8c0.6-0.7,1.4-1.2,2.4-1.3
		c-0.1-0.4-0.1-0.8-0.1-1.2c0-0.2,0-0.5,0-0.7c-1.5,0.1-2.9,0.8-3.8,2l-4.2,5.5l-7.1,1.9c-1.8,0.5-3,2.1-3,4v2.7
		c0,2.3,1.8,4.2,4.1,4.2h0.6c0.7,2.8,3.6,4.5,6.4,3.8c1.9-0.5,3.3-1.9,3.8-3.8h15.9c0.7,2.8,3.6,4.5,6.4,3.8
		c1.9-0.5,3.3-1.9,3.8-3.8h1.1c2.3,0,4.1-1.9,4.1-4.2v-3.1C551.6,179.8,550.6,178.3,549.1,177.6z M515.1,190.7
		c-1.9,0-3.4-1.5-3.4-3.4s1.5-3.4,3.4-3.4c1.9,0,3.4,1.5,3.4,3.4S516.9,190.7,515.1,190.7L515.1,190.7z M541.2,190.7
		c-1.9,0-3.4-1.5-3.4-3.4s1.5-3.4,3.4-3.4c1.9,0,3.4,1.5,3.4,3.4C544.6,189.2,543.1,190.7,541.2,190.7L541.2,190.7z"/>
	<path id="Tracé_4196" class="st0" d="M539.7,176.7l-3.8-3.9c2.3-2.7,1.9-6.7-0.8-9c-2.7-2.3-6.7-1.9-9,0.8c-2.3,2.7-1.9,6.7,0.8,9
		c2.2,1.9,5.4,2,7.7,0.3l3.8,3.9c0.3,0.3,0.8,0.3,1.2,0S540,177,539.7,176.7L539.7,176.7L539.7,176.7z M531.1,164
		c2.6,0,4.7,2.1,4.7,4.7c0,2.6-2.1,4.7-4.7,4.7c-2.6,0-4.7-2.1-4.7-4.7C526.4,166.1,528.5,164,531.1,164L531.1,164z"/>
</g>
</svg>
