<?xml version="1.0" encoding="utf-8"?>
<!-- Generator: Adobe Illustrator 23.0.1, SVG Export Plug-In . SVG Version: 6.00 Build 0)  -->
<svg version="1.1" id="Calque_1" xmlns="http://www.w3.org/2000/svg" xmlns:xlink="http://www.w3.org/1999/xlink" x="0px" y="0px"
	 viewBox="0 0 31.9 17.4" style="enable-background:new 0 0 31.9 17.4;" xml:space="preserve">
<style type="text/css">
	.st0{fill:#BAC3D2;}
</style>
<g id="Groupe_5012">
	<path id="Tracé_3968" class="st0" d="M29.6,6.7l-2.5-1.1L24.9,2c-0.6-1-1.8-1.6-3-1.6h-9.4c-1.1,0-2.1,0.5-2.8,1.4L6.9,5.5
		L2.1,6.8c-1.2,0.3-2,1.4-2,2.7v1.8c0,1.5,1.2,2.8,2.8,2.8h0.4c0.5,1.9,2.4,3,4.3,2.5c1.2-0.3,2.2-1.3,2.5-2.5h10.7
		c0.5,1.9,2.4,3,4.3,2.5c1.2-0.3,2.2-1.3,2.5-2.5h0.8c1.5,0,2.8-1.3,2.8-2.8V9.2C31.2,8.1,30.6,7.1,29.6,6.7z M6.7,15.4
		c-1.3,0-2.3-1-2.3-2.3c0-1.3,1-2.3,2.3-2.3s2.3,1,2.3,2.3l0,0C8.9,14.4,7.9,15.4,6.7,15.4z M24.2,15.4c-1.3,0-2.3-1-2.3-2.3
		c0-1.3,1-2.3,2.3-2.3s2.3,1,2.3,2.3l0,0C26.5,14.4,25.5,15.4,24.2,15.4C24.2,15.4,24.2,15.4,24.2,15.4L24.2,15.4z M28.4,12.8h-0.7
		c-0.2-1.9-2-3.3-3.9-3.1c-1.7,0.2-3,1.5-3.1,3.1H10.2c-0.2-1.9-2-3.3-3.9-3.1c-1.7,0.2-3,1.5-3.1,3.1H2.8c-0.8,0-1.5-0.7-1.5-1.5
		c0,0,0,0,0,0V9.5c0-0.7,0.4-1.3,1.1-1.5l5-1.4c0.1,0,0.3-0.1,0.3-0.2l3-3.9c0.4-0.5,1.1-0.9,1.8-0.9h9.4c0.8,0,1.5,0.4,1.9,1
		l2.3,3.7c0.1,0.1,0.2,0.2,0.3,0.2L29,7.8c0.5,0.2,0.9,0.8,0.9,1.4v2.1h0C29.9,12.1,29.3,12.8,28.4,12.8L28.4,12.8z"/>
</g>
</svg>
