<?xml version="1.0" encoding="utf-8"?>
<!-- Generator: Adobe Illustrator 23.0.1, SVG Export Plug-In . SVG Version: 6.00 Build 0)  -->
<svg version="1.1" id="Calque_1" xmlns="http://www.w3.org/2000/svg" xmlns:xlink="http://www.w3.org/1999/xlink" x="0px" y="0px"
	 viewBox="0 0 22.9 13.4" style="enable-background:new 0 0 22.9 13.4;" xml:space="preserve">
<style type="text/css">
	.st0{fill:#F6B822;}
</style>
<g id="Groupe_4993">
	<g id="Groupe_4992" transform="translate(0)">
		<path id="Tracé_3958" class="st0" d="M22.3,5.7c-0.2-0.3-0.6-0.3-0.8-0.1c-0.3,0.2-0.3,0.6-0.1,0.8c0.2,0.2,0.2,0.6,0,0.8
			c-1.4,1.8-3.2,3.2-5.3,4c2.3-2.5,2.3-6.3,0-8.8c1.2,0.5,2.3,1.1,3.3,2c0.1,0.1,0.2,0.2,0.4,0.3c0.2,0.2,0.6,0.2,0.8,0
			s0.2-0.6,0-0.8l0,0c-0.1-0.1-0.3-0.2-0.4-0.3c-5.9-4.8-14.7-4-19.5,1.9C0.6,5.5,0.5,5.6,0.4,5.7c-0.5,0.7-0.5,1.6,0,2.3
			c4.7,6,13.4,7.1,19.4,2.4c0.9-0.7,1.7-1.5,2.4-2.4C22.8,7.3,22.8,6.4,22.3,5.7z M1.4,7.3C1.2,7,1.2,6.7,1.4,6.4
			c1.4-1.8,3.2-3.2,5.3-4c-2.3,2.5-2.3,6.3,0,8.8C4.6,10.4,2.7,9,1.4,7.3z M11.4,12.2L11.4,12.2c-2.9,0-5.3-2.4-5.3-5.3
			c0-2.9,2.4-5.3,5.3-5.3l0,0h0c2.9,0,5.3,2.4,5.3,5.3C16.7,9.8,14.3,12.2,11.4,12.2L11.4,12.2z"/>
	</g>
</g>
<g id="Groupe_4995" transform="translate(8.872 4.022)">
	<g id="Groupe_4994">
		<path id="Tracé_3959" class="st0" d="M2.5,0.4c-1.4,0-2.4,1.1-2.4,2.4s1.1,2.4,2.4,2.4S5,4.2,5,2.8l0,0C4.9,1.5,3.9,0.4,2.5,0.4z
			 M2.5,4.1c-0.7,0-1.3-0.6-1.3-1.3s0.6-1.3,1.3-1.3c0.7,0,1.3,0.6,1.3,1.3C3.8,3.5,3.2,4.1,2.5,4.1L2.5,4.1z"/>
	</g>
</g>
</svg>
